<?xml version="1.0" encoding="UTF-8"?>
<svg width="102px" height="62px" viewBox="0 0 102 62" version="1.1" xmlns="http://www.w3.org/2000/svg" xmlns:xlink="http://www.w3.org/1999/xlink">
    <title>AdobeStock_282078490</title>
    <g id="Page-1" stroke="none" stroke-width="1" fill="none" fill-rule="evenodd">
        <g id="AdobeStock_282078490" transform="translate(0.2543, 0.6583)" fill="#D0AC1A" fill-rule="nonzero">
            <path d="M0.0449513837,59.0593867 C0.490164547,59.6442782 0.925953628,60.2373972 1.35235602,60.8376215 C0.997157816,60.1925206 0.631077038,59.5526552 0.253889304,58.9183994 L0.0449513837,59.0593867 Z" id="Path"></path>
            <path d="M0.0766267764,56.2961107 C1.2328347,57.7602094 2.32557966,59.2770381 3.35441286,60.8376215 C2.39674645,59.2321616 1.37146597,57.6648467 0.27789828,56.1442782 L0.0766267764,56.2961107 Z" id="Path"></path>
            <path d="M0.0965220643,53.7983545 C2.00688108,56.0178758 3.76163052,58.3746447 5.35646971,60.8372476 C3.83279731,58.3297681 2.1433807,55.9191473 0.289902767,53.6364248 L0.0965220643,53.7983545 Z" id="Path"></path>
            <path d="M0.0862752431,51.5040389 C1.43855647,52.9404637 2.72348542,54.4415856 3.93620045,56.0002992 C5.14910247,57.5586387 6.28979058,59.174196 7.35852655,60.8372476 C6.32535527,59.1521316 5.21832461,57.5107704 4.03646223,55.923635 C2.85482423,54.3368736 1.59835453,52.8039641 0.27157816,51.3335079 L0.0862752431,51.5040389 Z" id="Path"></path>
            <path d="M0.104300673,49.4445774 C1.85845176,51.1540015 3.51398654,52.9666417 5.05860135,54.870531 C6.60362752,56.7747943 8.03758414,58.7699327 9.3605834,60.8368736 C8.07318624,58.7474944 6.6723635,56.726178 5.15714286,54.791997 C3.64237098,52.857816 2.01323859,51.0115183 0.28171279,49.265445 L0.104300673,49.4445774 Z" id="Path"></path>
            <path d="M0.144689604,47.5765894 C2.30254301,49.515632 4.33074046,51.6008975 6.20445026,53.8192969 C8.07902019,56.0369484 9.79876589,58.3866118 11.3626028,60.8368736 C9.83433059,58.3645475 8.1473448,55.9879581 6.3013089,53.738893 C4.45617053,51.48908 2.45235602,49.3679132 0.314435303,47.3903515 L0.144689604,47.5765894 Z" id="Path"></path>
            <path d="M0.100074794,45.7822737 C2.68261032,47.923635 5.10542259,50.2605834 7.32397158,52.7815258 C9.54397906,55.3009723 11.5586387,58.0017951 13.3646597,60.8364996 C11.5942034,57.9797307 9.6118175,55.2508601 7.41907255,52.6988781 C5.22782349,50.1454001 2.82726253,47.7706806 0.262116679,45.5893044 L0.100074794,45.7822737 Z" id="Path"></path>
            <path d="M0.143829469,44.1932685 C1.63836948,45.3465969 3.08747195,46.5593867 4.48122663,47.8335079 C5.8750561,49.107629 7.21338818,50.4430815 8.48881825,51.8368736 C9.7644353,53.2302917 10.9771129,54.6820494 12.123635,56.1850411 C13.2703067,57.6876589 14.3508601,59.2411369 15.3667165,60.8364996 C14.3686612,59.2299177 13.3049738,57.6637248 12.1739342,56.146896 C11.0430815,54.6300673 9.84487659,53.1626028 8.58227375,51.752356 C7.31982049,50.3417352 5.99315632,48.9879581 4.60953628,47.6947644 C3.22599102,46.4015707 1.78567689,45.1685864 0.298803291,43.9946896 L0.143829469,44.1932685 Z" id="Path"></path>
            <path d="M0.173485415,42.7026178 C1.8723635,43.9270007 3.5210172,45.2216904 5.10516081,46.5922962 C6.68937921,47.9621541 8.20882573,49.4079282 9.65239342,50.9270007 C11.0961481,52.4456993 12.4638743,54.0373224 13.7503366,55.6925206 C15.0370606,57.3477188 16.2425954,59.0664921 17.3687734,60.8361257 C16.260359,59.055273 15.0716156,57.3237846 13.8002992,55.6540015 C12.5292072,53.9842184 11.1755049,52.3768886 9.74416604,50.8406133 C8.31305161,49.3043381 6.80441286,47.8394914 5.22946896,46.449813 C3.65471204,45.0597607 2.01387435,43.7441286 0.321765146,42.4988033 L0.173485415,42.7026178 Z" id="Path"></path>
            <path d="M0.119035153,41.2512341 C2.02943156,42.5391922 3.88616305,43.9079282 5.66959611,45.3675393 C7.45310396,46.8267764 9.16297681,48.3772625 10.7829469,50.0175019 C12.4032536,51.6573672 13.9333957,53.3869858 15.365445,55.1951384 C16.797831,57.002917 18.1321616,58.8888556 19.3708302,60.8361257 C18.1499626,58.8776365 16.8323111,56.9786088 15.4149963,55.1562453 C13.9980927,53.3331339 12.4815258,51.5870606 10.8729993,49.9292446 C9.26480927,48.2710546 7.56499626,46.7014959 5.78994016,45.2220643 C4.01495886,43.7418848 2.16518325,42.3522064 0.260770381,41.042558 L0.119035153,41.2512341 Z" id="Path"></path>
            <path d="M0.0235228123,39.8637996 C2.1473822,41.2093493 4.21570681,42.6431563 6.20287958,44.1839192 C8.19016455,45.7239342 10.0956993,47.370531 11.8970082,49.1259536 C13.6986911,50.8806283 15.3956245,52.7437547 16.9761406,54.7018699 C18.5571803,56.6596111 20.0216904,58.7112191 21.3728497,60.8357517 C20.0395288,58.7 18.5915482,56.6349289 17.0253553,54.6622289 C15.4596859,52.6895288 13.7758414,50.8091997 11.9853029,49.0362004 C10.1951758,47.2624533 8.29887809,45.5956619 6.31925954,44.0350785 C4.33979058,42.4737472 2.27756171,41.0182498 0.159162304,39.6513837 L0.0235228123,39.8637996 Z" id="Path"></path>
            <path d="M0.0540014959,38.633807 C2.376365,40.0268512 4.6433807,41.5137622 6.82299925,43.1218399 C9.00272999,44.7287958 11.0943904,46.4569185 13.0680628,48.3129394 C15.042184,50.1682124 16.8974944,52.1506358 18.6172775,54.2456245 C20.3377337,56.3398654 21.9225131,58.5455497 23.3749065,60.8357517 C21.9403141,58.5347046 20.3719895,56.3155572 18.6661182,54.2056096 C16.9609574,52.0956619 15.1182872,50.0956619 13.154712,48.2213164 C11.1916978,46.3465969 9.10856395,44.5979058 6.93578908,42.9700075 C4.7631638,41.3413613 2.50168287,39.8327599 0.184442782,38.4180254 L0.0540014959,38.633807 Z" id="Path"></path>
            <path d="M0.136275243,37.4954375 C2.64857891,38.9329843 5.10706806,40.4666417 7.47333583,42.134181 C9.83960359,43.8009723 12.1128272,45.6016455 14.2551234,47.5496634 C16.3979806,49.4965595 18.4087509,51.5896784 20.2651458,53.8133134 C22.1224383,56.0362004 23.8250935,58.3881077 25.3769634,60.8353777 C23.8428945,58.3768886 22.1566193,56.0115183 20.31365,53.7732984 C18.4716156,51.5339566 16.473074,49.4228871 14.3402393,47.4569185 C12.2079656,45.489454 9.94263276,43.6678384 7.58275991,41.9801047 C5.22296185,40.2912491 2.76952132,38.7359013 0.262191473,37.2771129 L0.136275243,37.4954375 Z" id="Path"></path>
            <path d="M0.0979057592,36.3406507 C2.80875093,37.8245325 5.46892296,39.4034405 8.03313388,41.1285714 C10.5973448,42.8525804 13.0645101,44.7239342 15.387472,46.7628272 C17.7111444,48.8009723 19.8888556,51.0066567 21.8912865,53.3626776 C23.8948392,55.7183246 25.7226627,58.2224383 27.3790202,60.8353777 C25.7404637,58.2112191 23.928908,55.6936425 21.9394166,53.3219147 C19.9510845,50.949813 17.7851159,48.726178 15.4709424,46.6685864 C13.157442,44.6094989 10.697457,42.7172027 8.13919222,40.9722513 C5.58089005,39.225804 2.92543007,37.6251309 0.219633508,36.1199701 L0.0979057592,36.3406507 Z" id="Path"></path>
            <path d="M0.080815258,35.24454 C2.98444278,36.7754301 5.8421466,38.3959611 8.60168287,40.173074 C11.3610696,41.9490651 14.021092,43.8832461 16.5243829,46.0070307 C19.0283844,48.1289454 21.373261,50.4404637 23.5211668,52.9243829 C25.6705684,55.4071803 27.6222887,58.0601346 29.3810396,60.8350037 C27.6400898,58.0489155 25.7045625,55.3824981 23.568923,52.8832461 C21.4348542,50.3832461 19.1013089,48.0530292 16.6062079,45.91092 C14.1118923,43.7673149 11.4584144,41.8118175 8.70456245,40.0145101 C5.95052356,38.2160808 3.0973074,36.5737472 0.199027674,35.0219521 L0.080815258,35.24454 Z" id="Path"></path>
            <path d="M0.0708676141,34.1900524 C3.16275243,35.770531 6.21507105,37.4310022 9.1684368,39.2564697 C12.1215034,41.0803291 14.9744951,43.0713538 17.6588631,45.2736724 C20.3440165,47.4741212 22.8575168,49.8862378 25.1516081,52.4943156 C27.4475692,55.1008975 29.523074,57.8997008 31.3831339,60.8350037 C29.5408751,57.8888556 27.4814884,55.0758414 25.1990277,52.4528048 C22.9184742,49.8286462 20.4158564,47.397083 17.73908,45.1764398 C15.0631638,42.9539267 12.216193,40.9412117 9.26832461,39.0960359 C6.32015707,37.2489903 3.27228871,35.5670157 0.186237846,33.9659686 L0.0708676141,34.1900524 Z" id="Path"></path>
            <path d="M0.0491772625,33.1593119 C3.32621541,34.794353 6.57187734,36.4949888 9.71925954,38.3660434 C12.866193,40.2355273 15.9137996,42.278534 18.7818624,44.555273 C21.6507105,46.8293942 24.3359761,49.3379955 26.7785714,52.0676141 C29.2233732,54.7953628 31.423822,57.739641 33.3851533,60.8346298 C31.4416604,57.7284218 29.2571803,54.7699327 26.8255797,52.0257292 C24.3962977,49.279282 21.7214286,46.7512341 18.8604712,44.4565445 C16.000374,42.1592371 12.9582274,40.094914 9.81630516,38.2037397 C6.67393418,36.3112565 3.4328721,34.5893792 0.162341062,32.9340688 L0.0491772625,33.1593119 Z" id="Path"></path>
            <path d="M0.0616679132,32.1675767 C3.51649215,33.8626776 6.94973822,35.6040389 10.2866866,37.5184368 C13.6231114,39.4311144 16.8626028,41.5204936 19.9126402,43.8656694 C21.4376589,45.0373224 22.9150337,46.2714286 24.3342184,47.5698579 C25.7535153,48.8682872 27.1145101,50.2306657 28.4100224,51.6528796 C31.0027674,54.4969334 33.326739,57.5825729 35.3872102,60.8342558 C33.34454,57.5717277 31.0364996,54.4715034 28.4566941,51.6106208 C27.1676889,50.1798055 25.8124907,48.8084518 24.3982049,47.5002992 C22.9840688,46.1925206 21.5109948,44.9479432 19.9897158,43.765819 C16.9471952,41.4000748 13.7127524,39.2886313 10.3811892,37.354712 C7.04913987,35.4188856 3.62075542,33.6565071 0.173335826,31.9415856 L0.0616679132,32.1675767 Z" id="Path"></path>
            <path d="M0.0244951384,31.1656694 C3.65676889,32.9307031 7.27946896,34.7165669 10.8095737,36.6747569 C14.3389304,38.6311892 17.7754675,40.7639491 21.0135004,43.1749439 C22.6324607,44.3795064 24.2013837,45.6517577 25.7076664,46.9950636 C27.2141361,48.3379955 28.6577412,49.751982 30.0298055,51.2325355 C31.4020568,52.713089 32.7026178,54.2602094 33.9288706,55.8641735 C35.1553478,57.4677636 36.3075542,59.1285714 37.389267,60.8342558 C36.3164547,59.1229619 35.1726627,57.4561705 33.9539641,55.845101 C32.7354899,54.2336574 31.441997,52.6790576 30.0761032,51.1899028 C28.7103964,49.7007479 27.2724009,48.2774121 25.7707554,46.9247569 C24.2692969,45.5713538 22.7044877,44.2890052 21.0890052,43.0739716 C17.858003,40.6420344 14.4261406,38.4872102 10.9016829,36.5096859 C7.37655198,34.5301795 3.75908751,32.7235602 0.135228123,30.9392296 L0.0244951384,31.1656694 Z" id="Path"></path>
            <path d="M0.0922213912,30.2219895 C3.88803291,32.0627524 7.68795812,33.894727 11.3999626,35.8946896 C15.111107,37.8925954 18.7348168,40.0638743 22.1525804,42.5332087 C23.8613313,43.7669409 25.517988,45.0735976 27.1078908,46.4576664 C28.6979806,47.8413613 30.2210172,49.3024682 31.6665669,50.8372476 C33.1123411,52.371653 34.4804787,53.9797307 35.7676141,55.6498878 C37.0550112,57.3200449 38.2614061,59.0526552 39.3911743,60.8338818 C38.2703815,59.0470456 37.0722887,57.3080778 35.7925954,55.6308153 C34.5132012,53.9531788 33.1520942,52.3372476 31.712528,50.7942408 C30.2731862,49.2508601 28.7555722,47.7800299 27.1701197,46.3866118 C25.5848542,44.9924458 23.9320494,43.6756918 22.2266268,42.4314884 C18.8154824,39.9408377 15.1961481,37.7474944 11.4900524,35.7284592 C7.78309648,33.7073672 3.98900524,31.8549364 0.202804787,29.9954749 L0.0922213912,30.2219895 Z" id="Path"></path>
            <path d="M0.116492147,29.2566567 C4.07415856,31.1860883 8.05250561,33.070531 11.9491025,35.1145849 C13.8971578,36.1363126 15.8245325,37.1977936 17.7157068,38.3207928 C19.6068437,39.4434555 21.4617053,40.6281975 23.2629394,41.8903515 C25.0642109,43.1521316 26.8115931,44.4916978 28.4881077,45.9157816 C30.1647345,47.3394914 31.7701571,48.8473448 33.2918474,50.43635 C34.8138369,52.0249813 36.2519073,53.6940165 37.6018325,55.4318624 C38.9521316,57.1693343 40.2142857,58.9752431 41.3934181,60.8338818 C40.223261,58.9696335 38.9693343,57.1573672 37.626739,55.4124159 C36.2844802,53.6674645 34.8533657,51.9902019 33.3374346,50.3929693 C31.8218399,48.7949888 30.221653,47.2774121 28.549439,45.8439791 C26.8773747,44.4097981 25.1336574,43.0597607 23.3355273,41.7871354 C21.5374346,40.5145101 19.6851533,39.318923 17.7964847,38.1854151 C15.9077786,37.0517951 13.9827225,35.9796185 12.0373224,34.9473448 C8.14596111,32.8823485 4.17415856,30.9778235 0.227486911,29.0303665 L0.116492147,29.2566567 Z" id="Path"></path>
            <path d="M0.057816006,28.2425954 C4.17778609,30.2783096 8.33889304,32.2247195 12.4262154,34.3172775 C14.4696709,35.363276 16.4945774,36.4458115 18.4838444,37.5908377 C20.4730366,38.7355273 22.4265894,39.9430815 24.3250187,41.2329095 C26.2234106,42.5223635 28.06638,43.8944652 29.8343306,45.3585639 C31.6023934,46.8219147 33.2950262,48.3772625 34.8972326,50.0212416 C36.499813,51.6652206 38.0117801,53.397457 39.4278235,55.2048616 C40.8440539,57.0118923 42.1649215,58.8940912 43.395288,60.8335079 C42.1738968,58.8884817 40.8616305,56.9999252 39.4525056,55.1854151 C38.0442034,53.370531 36.5391174,51.6300673 34.9424458,49.9774869 C33.3461855,48.3245325 31.6586013,46.7594615 29.8947644,45.2856395 C28.131077,43.8118175 26.2915482,42.4292446 24.3960733,41.1289454 C22.5006358,39.8282723 20.5495512,38.6098728 18.5627898,37.4544503 C16.5759162,36.2987285 14.5534031,35.2055348 12.512715,34.1491399 C8.43103964,32.0359761 4.27737472,30.0698205 0.170007479,28.0169035 L0.057816006,28.2425954 Z" id="Path"></path>
            <path d="M0.0701570681,27.2479806 C4.33986537,29.4013463 8.67442034,31.4161182 12.9442782,33.5589005 C15.079095,34.6301795 17.1977936,35.7335826 19.2818624,36.8995512 C21.3657816,38.0653702 23.4150337,39.2938669 25.4080404,40.6091249 C27.4010097,41.924009 29.3373972,43.3256545 31.1948392,44.8264024 C33.0524682,46.3267764 34.8306283,47.9262528 36.5118549,49.6229619 C38.1933433,51.318549 39.7778609,53.1113687 41.2584144,54.9857143 C42.7397158,56.8600598 44.1170531,58.8159312 45.3975318,60.8335079 C44.1260284,58.8103216 42.7569185,56.8480927 41.2830965,54.9662678 C39.8100224,53.0844428 38.2326103,51.2833957 36.5566941,49.5784592 C34.881264,47.8731488 33.1079656,46.2635752 31.2544129,44.753104 C29.4010097,43.2418848 27.4678758,41.8297681 25.4776739,40.5040389 C23.4875093,39.1783096 21.4406133,37.9385939 19.3590875,36.7622289 C17.2774495,35.5856021 15.1612191,34.4715782 13.0294316,33.3901272 C8.76566941,31.226926 4.43956619,29.1928571 0.184181002,27.0232236 L0.0701570681,27.2479806 Z" id="Path"></path>
            <path d="M0.0906133134,26.234368 C4.50183246,28.5213538 9.00579656,30.6141735 13.4557966,32.8115557 C15.6807405,33.9102468 17.8925954,35.0354899 20.0710546,36.2224757 C22.249439,37.4091997 24.3944652,38.6581152 26.4824607,39.9973074 C28.5703815,41.3361257 30.6009349,42.765819 32.5488407,44.3020942 C34.4969334,45.8376215 36.3617801,47.4797307 38.1229993,49.2272999 C39.8848168,50.9741212 41.5422588,52.8260284 43.0882573,54.7673149 C44.6346298,56.7082274 46.0691847,58.7373972 47.3994016,60.8331339 C46.0781601,58.7317876 44.6518325,56.6958863 43.1129394,54.7474944 C41.5744203,52.7991025 39.9233358,50.9385939 38.1675393,49.1824233 C36.4118549,47.4258788 34.5517577,45.7740464 32.6075168,44.2280479 C30.663463,42.6816754 28.6360135,41.2411369 26.5507105,39.8914734 C24.4654076,38.5414361 22.3226627,37.2816754 20.1467464,36.0842932 C17.970718,34.8866492 15.7614809,33.7509723 13.539828,32.6422214 C9.09648467,30.4247569 4.60216904,28.3131638 0.207180254,26.0108826 L0.0906133134,26.234368 Z" id="Path"></path>
            <path d="M0.102991773,25.1853403 C4.64712042,27.6253553 9.31791324,29.8081526 13.9476066,32.0649215 C16.2626776,33.1933433 18.567988,34.3414734 20.8414361,35.5501496 C23.1147719,36.7584144 25.3565071,38.0272251 27.5406507,39.3899776 C29.7247569,40.751982 31.8509723,42.2086013 33.8911743,43.778908 C35.9315632,45.3484667 37.8851907,47.0317128 39.7288706,48.8290202 C41.5732984,50.6255797 43.3070307,52.5358265 44.9218399,54.542184 C46.5355273,56.5496634 48.0243082,58.6562453 49.4016455,60.8331339 C48.0329095,58.6506358 46.55273,56.5373224 44.9461481,54.5223635 C43.3391922,52.5085266 41.6118175,50.5900524 39.7729993,48.7837696 C37.9347794,46.9774869 35.9856395,45.2841436 33.9489529,43.7041137 C31.9124533,42.1233358 29.7891548,40.6562453 27.6075916,39.2830217 C25.4259536,37.9097981 23.1864996,36.6299925 20.9156694,35.4111818 C18.644727,34.1919596 16.342184,33.0334705 14.0308153,31.8951758 C9.40841436,29.6186612 4.74861631,27.4176515 0.222737472,24.9635004 L0.102991773,25.1853403 Z" id="Path"></path>
            <path d="M0,24.0313762 C4.6737098,26.6544877 9.51641735,28.9477936 14.3335079,31.276365 C16.7424458,32.4410621 19.1461855,33.6159312 21.5201571,34.8484293 C23.8940539,36.0805161 26.2387061,37.3701571 28.5257292,38.7564697 C30.8126402,40.1424084 33.0416604,41.6255797 35.1811518,43.2302917 C37.3208302,44.8342558 39.3702319,46.5601346 41.302543,48.4097981 C43.2352281,50.2587135 45.0501122,52.2306657 46.73635,54.3077038 C48.4222139,56.3854899 49.9727001,58.5717277 51.4035153,60.8327599 C49.9816754,58.5661182 48.4394166,56.3735228 46.7610322,54.2878833 C45.0818998,52.2033657 43.2733732,50.2224383 41.3459237,48.3641735 C39.4192221,46.5051608 37.374196,44.7691847 35.2380329,43.1547494 C33.1020194,41.5395662 30.8757292,40.0455497 28.5912491,38.6487659 C26.3066941,37.2516829 23.9642857,35.9513089 21.5930067,34.7087509 C19.2216156,33.4657442 16.8209798,32.2807031 14.4161556,31.1063575 C9.60718025,28.7584144 4.77711294,26.4476066 0.123784592,23.8118175 L0,24.0313762 Z" id="Path"></path>
            <path d="M0.0519820494,22.9135378 C2.44233358,24.3196335 4.8881451,25.6272999 7.35875093,26.8820868 C9.82958115,28.137098 12.3254675,29.3397906 14.8203815,30.542184 C17.3152954,31.7446896 19.8099476,32.9469334 22.2772999,34.2028048 C24.7445774,35.4583022 27.1852281,36.7672775 29.5686238,38.1749439 C31.9518699,39.582199 34.2775617,41.0889304 36.510733,42.7246821 C38.7442034,44.3593119 40.8840688,46.1233358 42.8997756,48.0204936 C44.9166043,49.9172775 46.8081526,51.9464473 48.5620793,54.0889304 C50.316006,56.2321616 51.9244577,58.4924458 53.4057592,60.8327599 C51.9334331,58.4868362 50.3332087,56.2198205 48.5867614,54.0691099 C46.8399402,51.9187734 44.9543755,49.8810022 42.9431563,47.9748691 C40.9323111,46.067988 38.7965595,44.2938669 36.5667165,42.6483919 C34.336911,41.002169 32.0137622,39.4845924 29.6329095,38.0664921 C27.2519073,36.6480927 24.8135004,35.3284218 22.3489903,34.0625654 C19.8844054,32.7962977 17.3931189,31.5840688 14.9028048,30.3720643 C12.4124159,29.1602094 9.9223261,27.9486163 7.45905011,26.6856395 C4.99588631,25.4229245 2.55938669,24.10819 0.180216904,22.6965595 L0.0519820494,22.9135378 Z" id="Path"></path>
            <path d="M0.123859387,21.7511593 C2.56121915,23.2620793 5.06787584,24.6565445 7.60837696,25.9814136 C10.1491025,27.3066941 12.7237846,28.5631264 15.302917,29.8075916 C17.882012,31.0522812 20.4663052,32.2848542 23.0264398,33.5655198 C25.5863874,34.8458863 28.1228497,36.1744951 30.60273,37.6031788 C33.0824607,39.0313388 35.5053478,40.5601346 37.8330591,42.2254301 C40.1608078,43.8892296 42.3926702,45.6899028 44.4932685,47.633807 C46.5946148,49.5769634 48.5643231,51.6629768 50.3866866,53.870531 C52.2094241,56.0784592 53.8762154,58.4131638 55.407629,60.8323859 C53.8851907,58.4075542 52.2262528,56.0664921 50.4109948,53.8503366 C48.5957367,51.6349289 46.6323859,49.5403141 44.5362752,47.5878085 C42.4405385,45.634181 40.2127898,43.8230366 37.8881825,42.1483919 C35.5636874,40.4729993 33.1431937,38.9329843 30.665819,37.4940912 C28.1882947,36.0546372 25.6541511,34.7154076 23.0971578,33.4247569 C20.5399776,32.133807 17.9593867,30.8913613 15.3853777,29.637472 C12.8113313,28.383807 10.2430815,27.1188108 7.71077038,25.7860509 C5.17860883,24.4537023 2.68219895,23.0528422 0.25710546,21.5371728 L0.123859387,21.7511593 Z" id="Path"></path>
            <path d="M0.0532535527,20.4290576 C2.5329095,22.0650337 5.09910247,23.5646597 7.71065819,24.9749813 C10.3224383,26.3858265 12.9795438,27.7083396 15.647831,29.0042259 C18.3161556,30.3002618 20.9962603,31.5701945 23.6564697,32.8798803 C26.3163426,34.189641 28.9566193,35.5402767 31.5415856,36.9913987 C34.1263276,38.4419596 36.6555722,39.9939417 39.0871354,41.6895288 C41.5186986,43.383994 43.8511593,45.2228123 46.0456245,47.2164547 C48.2408377,49.2086013 50.2961855,51.3548242 52.1940912,53.6330591 C54.092371,55.9112939 55.8234854,58.3264024 57.4098728,60.8323859 C55.8324607,58.3207928 54.1091997,55.8989529 52.2183994,53.6128646 C50.3275991,51.3267764 48.2782349,49.1715782 46.0878833,47.1697083 C43.8986537,45.1667165 41.5699327,43.3174271 39.1413613,41.6121167 C36.7128272,39.9060583 34.1858639,38.3428571 31.6034779,36.881638 C29.0208302,35.4197457 26.3829469,34.0585639 23.7262902,32.7387061 C21.0693717,31.418923 18.3933807,30.1393044 15.7307405,28.8343306 C13.0681376,27.5295438 10.4182498,26.1988781 7.815819,24.7811144 C5.21357517,23.3639117 2.65875093,21.8586387 0.192445774,20.218923 L0.0532535527,20.4290576 Z" id="Path"></path>
            <path d="M0.105459985,19.104899 C2.61611818,20.8706806 5.23193717,22.4816006 7.90594615,23.9827599 C10.5802169,25.4847046 13.3124907,26.8782349 16.0633508,28.2292446 C18.8143979,29.5804787 21.5845924,30.8900898 24.339267,32.2303291 C27.0937547,33.5704936 29.8327973,34.9433059 32.5182124,36.4158564 C35.2033283,37.8877337 37.8347046,39.4606582 40.3661182,41.1842932 C42.8979058,42.9064323 45.328347,44.7800299 47.6129394,46.8196709 C49.8990277,48.857816 52.0377711,51.0608826 54.0086013,53.4060583 C55.9798055,55.7512341 57.7729993,58.2433807 59.4117427,60.832012 C57.7819746,58.2381451 55.9970082,55.738893 54.0325355,53.3858639 C52.0688108,51.0328347 49.9360509,48.8204188 47.6551982,46.7725505 C45.3750935,44.7235602 42.9483919,42.8391174 40.4195961,41.1061331 C37.8909125,39.3720269 35.2617801,37.7878833 32.5789828,36.30546 C29.8959237,34.8221765 27.1593867,33.4389304 24.4084518,32.0888182 C21.6572924,30.7385939 18.8916978,29.4195213 16.1469708,28.0596859 C13.4024308,26.7001122 10.6782723,25.2988781 8.01428571,23.7906881 C5.35052356,22.2832087 2.74715782,20.6675019 0.250822737,18.8989903 L0.105459985,19.104899 Z" id="Path"></path>
            <path d="M0.00732984293,17.575991 C2.54061331,19.4952506 5.20157068,21.2404263 7.93728497,22.8522812 C10.6731862,24.4652206 13.4831713,25.9464099 16.3213912,27.3654824 C21.9976066,30.2045251 27.7914734,32.7989903 33.3833957,35.7934555 C36.1786836,37.2892296 38.9225879,38.884368 41.5646971,40.6371728 C44.2071803,42.3884817 46.7460733,44.2983545 49.132012,46.3869858 C51.5190726,48.4741212 53.750561,50.7385191 55.802543,53.1566193 C57.855273,55.5750935 59.7172775,58.1521316 61.4139865,60.832012 C59.7262528,58.1465221 57.8721017,55.5627524 55.8268512,53.1364248 C53.7816006,50.7104712 51.5560957,48.436724 49.1735228,46.3394914 C46.7924458,44.2411369 44.2565445,42.3204188 41.6170531,40.5582648 C38.9775617,38.7949888 36.2359387,37.1888556 33.4430441,35.6824233 C27.855834,32.6667539 22.0682124,30.0520194 16.4062079,27.1965595 C13.5750935,25.7692595 10.774196,24.2808901 8.04962603,22.6624907 C5.32524308,21.045101 2.67786088,19.2961107 0.159835453,17.3753179 L0.00732984293,17.575991 Z" id="Path"></path>
            <path d="M0.0934181002,16.0757666 C2.6368736,18.1468586 5.32969334,20.0292072 8.11589379,21.7544877 C10.901982,23.4814136 13.779469,25.0540015 16.6955871,26.544166 C22.5282349,29.5265146 28.5179132,32.1811518 34.3150337,35.220531 C37.2129394,36.7391174 40.0624533,38.3540763 42.8085266,40.1330591 C45.5549738,41.910172 48.1967091,43.8525804 50.6780105,45.9857143 C53.1604338,48.1169783 55.4801795,50.4382199 57.6088257,52.924009 C59.7382199,55.410172 61.6649215,58.0661182 63.4158564,60.831638 C61.6738968,58.0605086 59.7550486,55.397831 57.6331339,52.9038145 C55.5112191,50.4097981 53.197083,48.0795812 50.7191473,45.9382199 C48.2423336,43.7949888 45.6039641,41.8417352 42.8601346,40.0537771 C40.1163052,38.2639491 37.2691473,36.6381451 34.3737098,35.1089753 C28.5814884,32.0485041 22.5987659,29.3738968 16.7818998,26.375991 C13.873635,24.8780479 11.0061705,23.2988407 8.23238594,21.5672027 C5.45848915,19.8372102 2.7802543,17.9520942 0.252842184,15.8805161 L0.0934181002,16.0757666 Z" id="Path"></path>
            <path d="M0.0796933433,14.3710546 C2.62210172,16.6139865 5.33836948,18.6549738 8.16925954,20.5155572 C11.0005984,22.3770755 13.944727,24.0593867 16.9405759,25.6353029 C22.9336574,28.7900524 29.1317502,31.5204562 35.150187,34.6094615 C38.1585639,36.1538145 41.1222887,37.7897532 43.9816754,39.5956619 C46.8414361,41.3997008 49.5953628,43.3757666 52.1813762,45.555273 C54.7685116,47.7332835 57.184742,50.1139865 59.3975318,52.6727001 C61.6106956,55.2317876 63.6084518,57.9729993 65.4181002,60.831264 C63.6174271,57.9677636 61.6275243,55.2194465 59.421466,52.6521316 C57.2157816,50.0855647 54.8047868,47.6951384 52.2221391,45.5074046 C49.6402393,43.3174271 46.8893044,41.3308901 44.0321616,39.515632 C41.1753927,37.6991773 38.2139117,36.0522438 35.2079282,34.4974196 C29.1946148,31.3875467 23.0043755,28.6375093 17.028908,25.468175 C14.0417726,23.8849663 11.1086761,22.1967464 8.29068811,20.331451 C5.47311144,18.4670905 2.77243829,16.4244577 0.246746447,14.1822737 L0.0796933433,14.3710546 Z" id="Path"></path>
            <path d="M0.105833957,12.5568811 C2.63433059,14.9804039 5.36155572,17.1924084 8.22819746,19.2001496 C9.66129394,20.204712 11.1286462,21.1595363 12.6215034,22.0716904 C14.1145849,22.9835079 15.6333583,23.8523186 17.1690352,24.6890052 C20.2407255,26.362715 23.3796559,27.9060209 26.5292072,29.4215782 C29.678908,30.9373598 32.8405011,32.4269634 35.9612565,33.9986163 C39.0815258,35.5700449 42.1604338,37.2274121 45.1353777,39.0593867 C48.1099476,40.8896036 50.9786836,42.897457 53.6724009,45.1229619 C56.3668661,47.3462229 58.8825729,49.7867614 61.1813762,52.4183994 C63.4801795,55.0507853 65.5508601,57.8783844 67.4199701,60.831264 C65.5598355,57.8731488 63.4973822,55.0384443 61.2053104,52.397831 C58.9132386,49.7575916 56.4027674,47.3077038 53.7124159,45.0743455 C51.0231862,42.8387435 48.157442,40.8200449 45.1851159,38.9789828 C42.2124159,37.1361257 39.1353777,35.4679132 36.0181002,33.8861257 C32.9001496,32.3041137 29.7421092,30.8045625 26.5977562,29.2797307 C23.4535153,27.755086 20.3217651,26.2035527 17.2597607,24.5231488 C15.728908,23.6830965 14.2155946,22.8113313 12.7284966,21.8970456 C11.2416978,20.9824607 9.78100224,20.0256545 8.35504862,19.0197083 C5.5026926,17.0091997 2.79188482,14.7967838 0.280553478,12.3752057 L0.105833957,12.5568811 Z" id="Path"></path>
            <path d="M0.0837696335,10.5293568 C2.58414361,13.1496634 5.30833957,15.5533283 8.20097233,17.7293568 C11.092745,19.9079656 14.1491399,21.8596859 17.2930815,23.6479058 C20.4380329,25.4366492 23.6693717,27.0647719 26.9212416,28.6433433 C30.1733732,30.2222139 33.4475318,31.753104 36.6858639,33.3565445 C39.9240838,34.9587883 43.1264024,36.6378459 46.2247569,38.4973074 C49.3223635,40.3544503 52.3145101,42.3940912 55.1237846,44.6667165 C57.934181,46.93635 60.5575916,49.4389678 62.9491399,52.148018 C65.3403141,54.85819 67.4891548,57.7774121 69.4222139,60.831264 C67.4981301,57.7718025 65.3571429,54.8454749 62.973074,52.1270755 C60.5878833,49.4097981 57.9697083,46.897831 55.1634256,44.6177263 C52.3582648,42.3350037 49.3691099,40.2841436 46.2733732,38.4161556 C43.1776365,36.5459985 39.9771877,34.8561705 36.7419596,33.2436799 C33.5066193,31.6299925 30.2363874,30.0893418 26.9902393,28.5017203 C23.744353,26.9143979 20.5210546,25.2784592 17.3867614,23.4837322 C14.2535153,21.6894914 11.2103964,19.73362 8.33388182,17.5533283 C5.45650711,15.3756545 2.74940165,12.9728871 0.266454749,10.355647 L0.0837696335,10.5293568 Z" id="Path"></path>
            <path d="M0.0525804039,8.294727 C1.28186238,9.70890052 2.57169035,11.0703067 3.918362,12.3727375 C5.26492147,13.6753553 6.66824981,14.9188856 8.12060583,16.1016455 C11.0249439,18.4689978 14.1256918,20.586911 17.3378833,22.5086013 C18.9439791,23.4702319 20.5777487,24.3844802 22.2292446,25.2643231 C23.8808901,26.1440165 25.5505984,26.9887061 27.2285714,27.8155198 C30.5847794,29.4689604 33.9753927,31.0486163 37.3360883,32.6884443 C40.6959611,34.328347 44.0291698,36.0281975 47.2572924,37.9157816 C50.4850411,39.8002244 53.6080778,41.871653 56.5403889,44.1917726 C58.0067315,45.3507105 59.4252057,46.5706058 60.7879581,47.8503366 C62.1503366,49.1300673 63.4569933,50.4696335 64.7026926,51.8637996 C67.1918474,54.6554974 69.4244577,57.6708302 71.4240838,60.8308901 C69.4334331,57.6652206 67.2086761,54.6427823 64.7262528,51.8428571 C63.4839192,50.4445774 62.1802543,49.1005236 60.8201197,47.8159312 C59.460359,46.5313388 58.0437547,45.3065819 56.579282,44.1424084 C53.6510845,41.8118175 50.5302917,39.7295438 47.3047868,37.8338818 C44.079282,35.9358265 40.7483171,34.2252805 37.3915108,32.5752431 C34.0340688,30.9253179 30.6479058,29.3361631 27.2984293,27.6743082 C25.6237472,26.8433059 23.958003,25.9946896 22.31092,25.1114809 C20.6639865,24.2281227 19.0354151,23.3107704 17.4351907,22.3465221 C14.2347046,20.4195961 11.1483919,18.2986163 8.26013463,15.9308527 C6.8157816,14.747831 5.42090501,13.5047494 4.0829095,12.2031414 C2.74483919,10.9017577 1.46379955,9.54192221 0.243231114,8.12984293 L0.0525804039,8.294727 Z" id="Path"></path>
            <path d="M0.0198204936,5.82913239 C1.22041885,7.35344054 2.48616305,8.82643979 3.81593119,10.2391922 C5.14554974,11.6520942 6.53911743,13.0045999 7.99020194,14.2919222 C9.44113687,15.5795438 10.9493642,16.8019073 12.5045625,17.9605086 C14.0596859,19.1193343 15.6615557,20.2143979 17.2982423,21.2535527 C20.5719147,23.3330965 23.9828721,25.1848915 27.4430815,26.9272999 C30.9042259,28.6698953 34.4153328,30.3072924 37.9035901,31.989454 C41.3915482,33.671092 44.8590127,35.399813 48.2255049,37.3129394 C51.591623,39.2239342 54.8530292,41.3278983 57.9173523,43.6958863 C59.4491399,44.8787584 60.9315632,46.1267016 62.3545251,47.4393418 C63.7778609,48.7516081 65.1417352,50.1285714 66.4401645,51.5649963 C69.0340314,54.4412117 71.3560209,57.5575168 73.4263276,60.8305161 C71.3646223,57.5519073 69.0508601,54.4284966 66.4633508,51.5440539 C65.1682872,50.1031414 63.8074046,48.7220643 62.3866866,47.4045625 C60.9663426,46.0870606 59.4861631,44.8342558 57.9558714,43.6461481 C54.895288,41.2676889 51.6364996,39.1528796 48.2726253,37.2308527 C44.908003,35.3068811 41.4427823,33.5676141 37.9584518,31.8760284 C34.473822,30.1839192 30.9677263,28.5372476 27.5140987,26.7866866 C24.0614061,25.03635 20.6605834,23.1779357 17.3997756,21.0940912 C15.7695213,20.0528048 14.1746821,18.9561705 12.6271129,17.7964473 C11.0795064,16.6369484 9.57935677,15.4143231 8.1367988,14.1271503 C6.69409125,12.8402019 5.3091623,11.4887809 3.98825729,10.0774869 C2.6671653,8.66634256 1.41020942,7.19551234 0.21828721,5.6737472 L0.0198204936,5.82913239 Z" id="Path"></path>
            <path d="M0.0530291698,3.1908377 C1.21884817,4.82681376 2.45314136,6.41402393 3.7579282,7.94132386 C5.06252805,9.46873598 6.43762154,10.9359387 7.878908,12.3349289 C9.31993269,13.7341436 10.8270007,15.0649589 12.3902019,16.3255797 C13.9532162,17.5864622 15.5721391,18.7771877 17.2340314,19.9033283 C20.5580778,22.1574046 24.0519073,24.1477188 27.6137248,25.9931563 C31.175991,27.8405759 34.8075168,29.5460359 38.4248317,31.2759162 C42.0422588,33.0057966 45.6477188,34.7636874 49.1555722,36.7060209 C50.9087509,37.6767764 52.6376215,38.6932685 54.3279731,39.7699327 C56.0183246,40.8465969 57.6697831,41.9853403 59.2700075,43.1921466 C62.4712042,45.6042633 65.4629768,48.2983545 68.1667913,51.2594615 C69.5183246,52.7403889 70.7988033,54.2852655 72.0082274,55.884368 C73.2176515,57.4834705 74.355647,59.1360509 75.4281975,60.8305161 C74.3601346,59.1334331 73.2262528,57.4774869 72.0205684,55.8750187 C70.815258,54.2725505 69.5381451,52.7231862 68.1899776,51.2381451 C65.4925206,48.2684368 62.5056096,45.5646223 59.3081526,43.1420344 C57.7094241,41.9299925 56.0594615,40.7856395 54.3706058,39.7033657 C52.6810022,38.621466 50.9536275,37.5995138 49.2011967,36.6234106 C45.6959611,34.6703067 42.092745,32.9019073 38.4794316,31.1623037 C34.8660434,29.4226627 31.2401645,27.7082648 27.6863874,25.8533657 C24.1330217,24.0004862 20.6504114,22.0043007 17.3403141,19.7469708 C15.6853777,18.6191847 14.074009,17.4275243 12.5189604,16.1663426 C10.9637996,14.9054226 9.46514585,13.5750187 8.03268512,12.1768512 C6.6,10.7788706 5.23369484,9.31335079 3.93780853,7.78807031 C2.64173523,6.26293942 1.41608078,4.67830965 0.258750935,3.04525056 L0.0530291698,3.1908377 Z" id="Path"></path>
            <path d="M0.00474943904,0.134854151 C1.12726253,1.89237098 2.32015707,3.60508601 3.58937921,5.25976066 C4.85833957,6.91454749 6.20370232,8.51103216 7.62442034,10.0377337 C10.4642483,13.0934555 13.6138369,15.8555348 16.976552,18.3190352 C20.3397532,20.7850785 23.9151085,22.9468212 27.5822364,24.9214286 C31.2503366,26.8981675 35.010733,28.6925206 38.7692595,30.4828347 C42.5280479,32.2729619 46.2864622,34.066193 49.9510097,36.0413239 C51.7827225,37.0284966 53.5905011,38.0608826 55.3601346,39.1554974 C57.1301421,40.2501122 58.8612565,41.4075542 60.539267,42.6386687 C63.894914,45.0994016 67.0325355,47.8630516 69.8586387,50.9202693 C71.2726253,52.4475692 72.6106956,54.0451758 73.8713538,55.7011219 C75.1327599,57.3570681 76.3167539,59.0709798 77.4304413,60.8301421 C76.3212416,59.068362 75.1413613,57.3510845 73.8840688,55.6913987 C72.6271503,54.0320868 71.2924458,52.4303665 69.881825,50.8989529 C67.0620793,47.8327599 63.9289454,45.0593867 60.5762902,42.5878085 C58.9001496,41.3514585 57.1701571,40.1887809 55.4020194,39.0885565 C53.6335079,37.9883321 51.8264772,36.9506731 49.9958863,35.9581526 C46.3335826,33.9723261 42.5777861,32.168736 38.8234854,30.3691099 C35.0695961,28.5693717 31.3157068,26.76638 27.6571803,24.7828347 C23.9994764,22.8014211 20.436724,20.634742 17.0884443,18.1666791 C13.7407255,15.7011219 10.608377,12.9399402 7.78597607,9.88754675 C6.37397158,8.36256545 5.03735976,6.76828721 3.77700075,5.11615557 C2.51641735,3.46406133 1.33197457,1.75433807 0.217688856,0 L0.00474943904,0.134854151 Z" id="Path"></path>
            <path d="M2.00205684,0.134854151 C3.12471952,1.89248317 4.31753927,3.60542259 5.58657442,5.26043381 C6.85534779,6.91551982 8.20044877,8.51241586 9.62086761,10.0395288 C12.460546,13.0958115 15.6094241,15.8591623 18.9722139,18.3230366 C22.3352281,20.7899776 25.9112565,22.9512341 29.5791324,24.9250935 C33.248018,26.9010097 37.0094241,28.6939417 40.7688856,30.4827225 C44.5287958,32.2713538 48.2883321,34.0631264 51.9532536,36.0374346 C53.7857143,37.024196 55.5938669,38.0560209 57.3638743,39.1510097 C59.1338818,40.2452506 60.8649963,41.4026926 62.5430067,42.634181 C65.8982797,45.0960359 69.0362752,47.8596859 71.8616305,50.9180254 C73.2752431,52.4460733 74.6129394,54.0436799 75.8735976,55.7 C77.1346298,57.3563201 78.3189978,59.0706058 79.4323111,60.8301421 C78.3234854,59.067988 77.1432311,57.3503366 75.8863126,55.6906507 C74.6293942,54.0305909 73.2950636,52.4288706 71.8848168,50.8967091 C69.065819,47.8297681 65.9323111,45.055647 62.5804039,42.5833209 C60.9042633,41.3465969 59.1742708,40.1839192 57.4053852,39.0840688 C55.6364996,37.9838444 53.829469,36.9463725 51.9985041,35.9542633 C48.3354525,33.9692595 44.578534,32.1671279 40.8234854,30.3689978 C37.0682498,28.570718 33.3133508,26.7692221 29.6540015,24.7864996 C25.9955871,22.805834 22.4321616,20.639641 19.084181,18.1706806 C15.7363126,15.7047868 12.604712,12.9423336 9.78246073,9.889454 C8.37075542,8.36398654 7.03440539,6.76929693 5.77419596,5.11679132 C4.51379955,3.46439791 3.32943156,1.75445026 2.21503366,0 L2.00205684,0.134854151 Z" id="Path"></path>
            <path d="M3.99940165,0.134854151 C5.12217651,1.89259536 6.31492147,3.60572177 7.58376963,5.26106956 C8.85231862,6.91645475 10.1971578,8.51379955 11.6173523,10.0413613 C14.4568437,13.0981675 17.6049738,15.8627898 20.9679132,18.3270381 C24.3306657,20.7948766 27.9074046,22.9556844 31.5760284,24.9287958 C35.2456619,26.9038893 39.0082274,28.6953254 42.7688856,30.4826477 C46.5295438,32.2697831 50.2902019,34.0600972 53.9558714,36.0335453 C55.7887061,37.0198953 57.5972326,38.0515333 59.3672401,39.1461481 C61.1376215,40.2407629 62.8691099,41.3982049 64.5467464,42.6296933 C67.9016455,45.0926702 71.039641,47.8566941 73.8646223,50.9161556 C75.2778609,52.4442034 76.6151832,54.042558 77.8758414,55.6992521 C79.1368736,57.3559461 80.3208676,59.0706058 81.434555,60.8297681 C80.3253553,59.0676141 79.1454749,57.3499626 77.8885565,55.6899028 C76.631638,54.029469 75.2980553,52.4273747 73.8874346,50.8948392 C71.0691847,47.8267764 67.9356769,45.0526552 64.5841436,42.5788332 C62.908003,41.3421092 61.1780105,40.1790576 59.4087509,39.0792072 C57.6398654,37.9793568 55.8324607,36.9420718 54.0007479,35.950374 C50.3373224,33.966193 46.579282,32.1655198 42.8231114,30.3688856 C39.0669409,28.5721391 35.3109574,26.7720643 31.6508601,24.7901645 C27.9917352,22.8102468 24.4275617,20.64454 21.0798429,18.1747195 C17.7318998,15.7084144 14.6010471,12.944727 11.7789454,9.89132386 C10.3674645,8.36537023 9.03141361,6.77026926 7.77142857,5.11746447 C6.51118175,3.46473448 5.32688856,1.75456245 4.21237846,0 L3.99940165,0.134854151 Z" id="Path"></path>
            <path d="M5.99678384,0.134854151 C7.11959611,1.89270755 8.31226627,3.60605834 9.58092745,5.26170531 C10.8493269,6.91742708 12.1939043,8.51514585 13.6137996,10.0431937 C16.4531414,13.1004862 19.6005236,15.8664174 22.9635752,18.331077 C26.3261032,20.7997756 29.9035527,22.9601346 33.5729245,24.9324607 C37.2433433,26.9067315 41.0067315,28.6967464 44.7685116,30.4825355 C48.5302917,32.2682124 52.2920718,34.0570307 55.9584892,36.0296933 C57.7916978,37.0155946 59.6005984,38.0470456 61.3709798,39.1416604 C63.1413613,40.2359013 64.8728497,41.3933433 66.5508601,42.6252057 C69.9053852,45.0889304 73.0430067,47.8540763 75.8672401,50.9142857 C77.2804787,52.4427076 78.617801,54.0414361 79.8780853,55.6985041 C81.1387435,57.3551982 82.3227375,59.0702319 83.4364248,60.8297681 C82.3272251,59.0672401 81.1473448,57.3492147 79.8908003,55.6887809 C78.6342558,54.028347 77.3006731,52.4258788 75.8904263,50.8925954 C73.0725505,47.8241586 69.9394166,45.0489155 66.5882573,42.5743455 C64.9117427,41.3372476 63.1817502,40.174196 61.4124907,39.0747195 C59.6432311,37.9744951 57.8354525,36.9377711 56.0033657,35.9464847 C52.3391922,33.9631264 48.5800299,32.1638743 44.8227375,30.3687734 C41.065445,28.5735228 37.3086013,26.7749065 33.6477188,24.7938295 C29.9878833,22.8146597 26.4229619,20.6494016 23.0755423,18.1787584 C19.7274869,15.7120419 16.5973822,12.947083 13.7754675,9.89315632 C12.3642483,8.36679132 11.0284592,6.77127898 9.76862378,5.11813762 C8.50856395,3.46507105 7.32434555,1.75467464 6.20972326,0 L5.99678384,0.134854151 Z" id="Path"></path>
            <path d="M7.99412865,0.134854151 C9.1170905,1.89278235 10.3096485,3.60635752 11.5781227,5.26234106 C12.8463351,6.918362 14.1906133,8.51652954 15.6102468,10.0450262 C18.449439,13.1028422 21.5961107,15.8700075 24.9592371,18.3350785 C28.3215034,20.8046372 31.8997382,22.9645475 35.5697831,24.9361631 C39.2412117,26.9096111 43.0056096,28.6981675 46.7681376,30.4824607 C50.5310396,32.2666043 54.2939417,34.0539267 57.961107,36.0257666 C59.7946896,37.0112939 61.6039641,38.042558 63.3743455,39.1367988 C65.145101,40.2310396 66.8769634,41.3884817 68.5545999,42.620718 C71.9091249,45.0851907 75.0459985,47.8514585 77.8702319,50.9120419 C79.2830965,52.4412117 80.6200449,54.0403141 81.8803291,55.6977562 C83.1409873,57.3548242 84.3246073,59.0698579 85.4382947,60.8293942 C84.329095,59.0672401 83.1495886,57.3488407 81.8930441,55.6880329 C80.6364996,54.0272251 79.3032909,52.424009 77.8934181,50.8907255 C75.0755423,47.8215408 71.9435303,45.0451758 68.591997,42.5702319 C66.9158564,41.3323859 65.1851159,40.1697083 63.4158564,39.0698579 C61.6465969,37.9700075 59.8384443,36.9334705 58.0059835,35.942558 C54.3406881,33.9600224 50.5807779,32.1622663 46.8223635,30.3686612 C43.0643231,28.5748691 39.3062827,26.7777487 35.64454,24.7974944 C31.983994,22.8191099 28.4183994,20.6543007 25.0712042,18.1827599 C21.7231114,15.7157068 18.5937173,12.9494764 15.7719521,9.89502618 C14.3610322,8.36821242 13.0254675,6.77225131 11.7658564,5.11881077 C10.5059461,3.46540763 9.32180254,1.75478684 8.20710546,0 L7.99412865,0.134854151 Z" id="Path"></path>
            <path d="M9.99147345,0.134854151 C11.1145475,1.89289454 12.3069933,3.60669409 13.5752805,5.26297681 C14.8433433,6.91933433 16.1873598,8.51791324 17.6066941,10.0468586 C20.4457367,13.1051982 23.5916604,15.873635 26.954899,18.3391174 C30.3169035,20.8095363 33.8958863,22.9689978 37.5666791,24.9398654 C41.2385939,26.9124907 45.0041137,28.6995512 48.7681376,30.4823859 C52.5317876,32.2650337 56.2954375,34.0508601 59.9637248,36.0218773 C63.6308901,37.9905759 67.2030666,40.1498878 70.5583396,42.6166043 C73.9132386,45.081451 77.0493642,47.8488407 79.8732236,50.9097981 C81.2860883,52.4397158 82.6226627,54.0391922 83.8825729,55.6966343 C85.1428571,57.3544503 86.3264772,59.0694839 87.4405385,60.8293942 C86.3309648,59.0668661 85.1514585,57.3484667 83.895288,55.687285 C82.6391174,54.0261032 81.3059088,52.4225131 79.8964099,50.8884817 C77.078534,47.818923 73.94727,45.0410621 70.5957367,42.5657442 C67.2434555,40.0881825 63.6738968,37.9180254 60.0086013,35.9386687 C56.342558,33.9569559 52.5815258,32.1606956 48.8219895,30.368549 C45.0628272,28.5762902 41.3036649,26.7805909 37.6413987,24.8011593 C33.9801047,22.8235228 30.4138369,20.6591997 27.0669035,18.1867988 C23.7186986,15.7193343 20.5900524,12.9518699 17.7684368,9.89689604 C16.3577786,8.36963351 15.0225131,6.77326103 13.7630516,5.11944652 C12.5033283,3.4657442 11.3192595,1.75489903 10.2044129,0 L9.99147345,0.134854151 Z" id="Path"></path>
            <path d="M11.9888182,0.134854151 C13.1119671,1.89300673 14.3043755,3.60699327 15.5724757,5.26361257 C16.8403515,6.92026926 18.1840688,8.51929693 19.6031788,10.0486911 C22.4420718,13.1075542 25.5872476,15.8772625 28.9505984,18.3431563 C32.3123411,20.8144727 35.8920344,22.973448 39.5635752,24.9435303 C43.23635,26.9153702 47.0029918,28.7009723 50.7677636,30.4822737 C54.5325355,32.2634256 58.2973074,34.0477936 61.9663426,36.017988 C65.6342558,37.9860883 69.2068063,40.1446522 72.5620793,42.6124907 C75.9169783,45.0773373 79.052356,47.8462229 81.8762154,50.9079282 C83.2887061,52.4378459 84.6249065,54.0380703 85.8848168,55.6958863 C87.144727,57.3537023 88.328721,59.0691099 89.4424084,60.8290202 C88.3332087,59.0664921 87.1533283,57.3477188 85.8971578,55.6861631 C84.6413613,54.0249813 83.3085266,52.4210172 81.8994016,50.8866118 C79.0818998,47.8163052 75.9510097,45.0373224 72.5994764,42.5616305 C69.2475692,40.0833209 65.6768886,37.9135378 62.0112191,35.934742 C58.3444278,33.9538519 54.5822737,32.1590501 50.8219895,30.3684368 C47.0617053,28.5776365 43.3014211,26.7834331 39.6383695,24.8048616 C35.9762528,22.8279731 32.4092371,20.6640987 29.0626028,18.1908377 C25.7142857,15.7229619 22.5864248,12.9542259 19.7649215,9.89876589 C18.3545251,8.3710172 17.0195587,6.77423336 15.7602468,5.12011967 C14.5007105,3.46611818 13.3167165,1.75501122 12.2017577,0 L11.9888182,0.134854151 Z" id="Path"></path>
            <path d="M13.9861631,0.134854151 C15.1094241,1.89308153 16.3017577,3.60732984 17.5697083,5.26424832 C18.8373598,6.92124159 20.1808153,8.52064323 21.599626,10.0505236 C24.4383695,13.1099102 27.5827973,15.8808901 30.9462603,18.3471578 C34.3079656,20.8190726 37.8880703,22.9780853 41.5605834,24.9472326 C45.2341062,26.9182498 49.0014959,28.7023934 52.7673897,30.4821616 C56.5332835,32.2618175 60.2991773,34.044727 63.9689604,36.0140987 C67.6376215,37.9812266 71.21092,40.1394166 74.565819,42.608003 C77.920718,45.0735976 81.0553478,47.8436051 83.8792072,50.9060583 C85.2913239,52.43635 86.6271503,54.0369484 87.8870606,55.6951384 C89.1469708,57.3533283 90.3305909,59.0691099 91.4446522,60.8290202 C90.3350785,59.0661182 89.1555722,57.3473448 87.8994016,55.6854151 C86.6436051,54.0238594 85.3111444,52.4195213 83.9023934,50.884368 C81.0848915,47.8136874 77.9551234,45.0335826 74.6032162,42.5575168 C71.2516829,40.0780853 67.6802543,37.9086761 64.0138369,35.9308527 C60.3462977,33.9507853 56.5830217,32.157442 52.8216156,30.3682872 C49.0602094,28.5790576 45.2991773,26.7863126 41.6350037,24.8085266 C37.9722513,22.8325729 34.4048242,20.668736 31.0583022,18.1948766 C27.7098728,15.7266268 24.5827599,12.9566193 21.7614435,9.90063575 C20.3513089,8.37243829 19.0165669,6.77520568 17.7574794,5.12079282 C16.4980927,3.46641735 15.3142109,1.75512341 14.1991399,0 L13.9861631,0.134854151 Z" id="Path"></path>
            <path d="M15.9835079,0.134854151 C17.1068811,1.89319372 18.2991025,3.60762902 19.5668661,5.26488407 C20.834368,6.92221391 22.1775243,8.52202693 23.5961107,10.0523186 C25.0151458,11.5821616 26.5112191,13.0401645 28.0720643,14.4243829 C29.6331339,15.8084892 31.2605834,17.1169783 32.9419596,18.3511967 C36.3036275,20.8235976 39.8840688,22.9827973 43.5572177,24.9509723 C47.2318624,26.9211668 51.000374,28.7038145 54.7673897,30.4820868 C58.5340314,32.2602094 62.3010471,34.041623 65.9715782,36.010172 C69.6409873,37.976739 73.2150337,40.134181 76.5695587,42.6038893 C79.9244577,45.0698579 83.0583396,47.8409873 85.882199,50.9038145 C87.2939417,52.4348542 88.6297681,54.0354525 89.8893044,55.6940165 C91.1488407,57.3525804 92.3324607,59.068736 93.4465221,60.8286462 C92.3369484,59.0657442 91.157442,57.3465969 89.9016455,55.6846672 C88.6462229,54.0223635 87.3137622,52.4176515 85.9053852,50.8824981 C83.0878833,47.8110696 79.9588631,45.029469 76.6069559,42.5530292 C73.2557966,40.0728497 69.68362,37.9041885 66.0164547,35.926926 C62.3481675,33.9476814 58.5837696,32.1557966 54.8212416,30.368175 C51.0587135,28.5804413 47.2965595,26.7891922 43.632012,24.8122289 C39.9682124,22.8372476 36.4005236,20.673261 33.0539641,18.1989155 C31.3801795,16.9637622 29.7608078,15.6550112 28.2081152,14.2713164 C26.6556844,12.8875467 25.1682872,11.4306657 23.7579282,9.90246821 C22.3480553,8.37382199 21.0136126,6.77621541 19.7546746,5.12146597 C18.4954749,3.46679132 17.3116679,1.7552356 16.1964847,0 L15.9835079,0.134854151 Z" id="Path"></path>
            <path d="M17.9808901,0.134854151 C19.1043381,1.89330591 20.2964847,3.60796559 21.5640613,5.26551982 C22.8313762,6.92314884 24.1742708,8.52337322 25.592558,10.0541511 C27.0117427,11.5841062 28.5072924,13.0428197 30.0680254,14.4273747 C31.628908,15.8119297 33.2562827,17.1207928 34.9376215,18.3552356 C36.6188482,19.590015 38.3537771,20.7507479 40.1286462,21.8447644 C41.9035153,22.939641 43.7169035,23.9704188 45.5542259,24.9546746 C49.2292446,26.9240464 52.9992521,28.7052356 56.7670157,30.4819746 C60.5351533,32.2586013 64.302917,34.0385565 67.974196,36.0062453 C71.644353,37.9718773 75.2191473,40.1293194 78.5732984,42.5997756 C81.9285714,45.0657442 85.0617053,47.8387435 87.8851907,50.9019447 C89.2965595,52.4333583 90.632012,54.0343306 91.8915482,55.6932685 C93.1510845,57.3522064 94.3343306,59.068362 95.4487659,60.8286462 C94.3388182,59.0657442 93.1596859,57.3462229 91.9038893,55.6839192 C90.6484667,54.0212416 89.3167539,52.4161556 87.908003,50.8802543 C85.0912491,47.8084518 81.9626028,45.0257292 78.6106956,42.5489155 C75.2595363,40.067988 71.6869858,37.8993269 68.0186986,35.9229993 C64.3496634,33.9445774 60.5845176,32.1541885 56.8208676,30.3680628 C53.0575916,28.5818624 49.2943156,26.7920344 45.6286462,24.8159312 C41.9640987,22.8419596 38.3960359,20.6777487 35.0496634,18.2029544 C33.3758788,16.9675393 31.7565819,15.6584144 30.2041137,14.2743455 C28.6517577,12.8902019 27.1649215,11.4326103 25.7544129,9.90433807 C24.3448392,8.37524308 23.0106582,6.77722513 21.7518699,5.12213912 C20.4928571,3.4671279 19.3091249,1.75534779 18.1938295,0 L17.9808901,0.134854151 Z" id="Path"></path>
            <path d="M19.9782349,0.134854151 C21.1017577,1.8933807 22.2938669,3.60826477 23.5612565,5.26615557 C24.8283844,6.92412117 26.1710172,8.52475692 27.5890426,10.0559835 C29.0083396,11.5860135 30.5033283,13.0454375 32.0639865,14.4303665 C33.6246821,15.8152954 35.2519447,17.1245699 36.9332835,18.3592745 C38.6148093,19.594166 40.3492895,20.7553852 42.1245325,21.8492521 C43.8997756,22.9440165 45.7131638,23.9745699 47.5512341,24.958377 C51.2270007,26.926926 54.9977562,28.7066567 58.7666417,30.4818998 C62.5359013,32.2569933 66.3047868,34.0354525 69.9768138,36.0023186 C73.6477188,37.9670157 77.2228871,40.1240838 80.5770381,42.595288 C83.9323111,45.0620045 87.0646971,47.8361257 89.8878085,50.8997008 C91.2991773,52.4314884 92.6346298,54.0332087 93.8934181,55.6925206 C95.1529544,57.3514585 96.3362004,59.067988 97.4506358,60.8282723 C96.3406881,59.0653702 95.1615557,57.3458489 93.9061331,55.6827973 C92.6507105,54.0201197 91.3193717,52.4146597 89.9109948,50.8783844 C87.0942408,47.805834 83.9663426,45.0219895 80.6144353,42.5444278 C77.26365,40.0627524 73.6903515,37.8948392 70.0213164,35.9190726 C66.3515333,33.9414734 62.5852655,32.152543 58.8204936,30.3679506 C55.0560957,28.5832461 51.2920718,26.794914 47.6256545,24.8196335 C45.7928197,23.8324233 43.9846672,22.7989529 42.2157816,21.7019073 C40.446896,20.6057592 38.7191473,19.4428571 37.0453628,18.2069933 C35.3715782,16.9713538 33.7524308,15.6618549 32.2001122,14.2773373 C30.647831,12.8928571 29.1615183,11.434555 27.7509349,9.90620793 C26.341623,8.37666417 25.0077038,6.77819746 23.7491025,5.12277487 C22.4902393,3.46746447 21.3065445,1.75545999 20.1911743,0 L19.9782349,0.134854151 Z" id="Path"></path>
            <path d="M21.9755797,0.134854151 C23.0992147,1.89349289 24.2912117,3.60860135 25.5584518,5.26679132 C26.8253927,6.9250561 28.1677636,8.52614061 29.5855273,10.057816 C31.004899,11.5879207 32.4994016,13.0480553 34.0599476,14.4333209 C35.6204562,15.818736 37.2476066,17.128347 38.9289454,18.363276 C40.6103216,19.5982797 42.3448018,20.759985 44.1207928,21.8537397 C45.8956619,22.9484293 47.7097981,23.9786836 49.5478684,24.9621167 C53.2247569,26.9298429 56.9966343,28.7081152 60.7666417,30.4817876 C64.5366492,32.2553852 68.3062827,34.0323859 71.9794316,35.9984293 C75.6510845,37.962528 79.2270007,40.1188482 82.5807779,42.5911743 C84.2580404,43.8252805 85.8803291,45.1349289 87.4356769,46.5201197 C88.9902767,47.9056844 90.4798055,49.3656694 91.8908003,50.897831 C93.3017951,52.4299925 94.6368736,54.0320868 95.8956619,55.6917726 C97.1548242,57.3510845 98.3384443,59.0676141 99.4528796,60.8278983 C98.3429319,59.0649963 97.1637996,57.345101 95.908377,55.6820494 C94.6533283,54.0189978 93.3219895,52.4127898 91.9139865,50.8765146 C90.5059835,49.3398654 89.0194465,47.8753927 87.4670905,46.4849663 C85.9143605,45.09454 84.2939417,43.7800299 82.618175,42.5403141 C79.2677636,40.0575168 75.6933433,37.8899776 72.0239342,35.9151085 C68.3534031,33.9383695 64.5860135,32.1508975 60.8201197,30.3678384 C57.0549738,28.5846298 53.289454,26.7977936 49.6222887,24.8232984 C47.78908,23.836537 45.9805535,22.8033657 44.2116679,21.7063949 C42.4424084,20.610359 40.7150337,19.4470082 39.0411369,18.2110322 C37.3672401,16.9751309 35.7482049,15.6652954 34.1960733,14.2803665 C32.6439417,12.8955123 31.1581526,11.4364996 29.747457,9.90807779 C28.3383695,8.37804787 27.0047494,6.77916978 25.7462977,5.12344802 C24.4876215,3.46780105 23.3040015,1.75557218 22.1885191,0 L21.9755797,0.134854151 Z" id="Path"></path>
            <path d="M23.9729245,0.134854151 C25.0915482,1.8855273 26.2776739,3.59319372 27.5382199,5.2446896 C28.7985041,6.89618549 30.1333583,8.49124907 31.5429693,10.0176141 C32.9551234,11.541623 34.4402393,12.9977562 35.99181,14.3789828 C37.5431937,15.7604712 39.1608078,17.0669035 40.8324607,18.2991025 C42.5044877,19.5313388 44.2292446,20.6906507 45.9947644,21.7829843 C47.7602842,22.8754675 49.5646971,23.9036275 51.3934181,24.8846298 C55.0516081,26.8475318 58.8055348,28.6198205 62.5590875,30.3840688 C66.3130142,32.1479806 70.0684368,33.9117053 73.7296185,35.8595737 C77.3900524,37.805086 80.9566193,39.9397158 84.3081526,42.3832461 C87.6596859,44.8234106 90.7939417,47.5672401 93.6215408,50.6020194 C95.0351533,52.1188482 96.3743455,53.7052356 97.6376215,55.3492147 C98.9016455,56.9935677 100.090127,58.6951384 101.210172,60.4408377 C100.094615,58.6921466 98.9102468,56.9875841 97.6503366,55.3398654 C96.3904263,53.6921466 95.0553478,52.1016455 93.644353,50.5803291 C90.8231114,47.5373224 87.6937173,44.7833957 84.3455497,42.3323859 C80.9970082,39.8783844 77.4323111,37.7325355 73.7741212,35.7761406 C70.1151832,33.8175393 66.3623785,32.0434555 62.6129394,30.2700449 C58.8638743,28.4963725 55.1163052,26.7155198 51.4682124,24.7459237 C49.6439791,23.7615557 47.8451758,22.7305161 46.0860135,21.6357891 C44.3268512,20.5411369 42.6091997,19.3802169 40.9450262,18.1470456 C39.2808527,16.9139117 37.6712042,15.607255 36.1281975,14.2262154 C34.5850037,12.8454375 33.1085266,11.3904263 31.705086,9.86806283 C30.3041137,8.34334331 28.9779357,6.75044877 27.7261406,5.10145849 C26.4741586,3.45246821 25.2963725,1.74764398 24.1858639,0 L23.9729245,0.134854151 Z" id="Path"></path>
            <path d="M25.9702693,0.134854151 C28.1222887,3.50231862 30.5252057,6.71473448 33.2201571,9.66858639 C34.5675393,11.1448392 35.9826851,12.5590875 37.4603964,13.9044129 C38.9379207,15.2499626 40.4779357,16.526365 42.0699327,17.7333583 C45.2543007,20.1492895 48.6458489,22.2803291 52.1417352,24.2086761 C55.6387435,26.1383695 59.23635,27.8742708 62.8455497,29.5756171 C66.4551234,31.2775991 70.0800299,32.9471204 73.6342558,34.7600598 C77.1877337,36.5707928 80.6724009,38.5272251 83.9850411,40.7508601 C85.6413613,41.8619297 87.2543007,43.0380703 88.8107704,44.2852655 C90.3676141,45.5320868 91.867988,46.8495886 93.302543,48.2355273 C94.737098,49.621466 96.105834,51.0754675 97.4050112,52.5893044 C98.7045625,54.1031414 99.934181,55.6764398 101.097233,57.2979806 C99.9386687,55.673448 98.7127898,54.0967838 97.4169783,52.5792072 C96.1215408,51.0616305 94.7561705,49.6031414 93.3242334,48.213089 C91.8926702,46.8226627 90.394914,45.5002992 88.8403141,44.2482423 C87.2860883,42.9961855 85.6750187,41.8148093 84.0201945,40.6985041 C80.710546,38.4643979 77.2281227,36.4971204 73.6772625,34.6759162 C70.1256545,32.8524682 66.5041137,31.1728497 62.8994016,29.4616679 C59.2950636,27.7511593 55.7049364,26.0069933 52.2180254,24.0708676 C48.7322364,22.1360509 45.3534031,20.000561 42.184368,17.5828347 C40.5998504,16.3749813 39.0676889,15.0983171 37.5985041,13.7531788 C36.1289828,12.4082648 34.7223261,10.9949888 33.3833583,9.52026926 C30.7053852,6.56937173 28.3192969,3.3618549 26.1832087,0 L25.9702693,0.134854151 Z" id="Path"></path>
            <path d="M27.9676141,0.134854151 C29.0071429,1.76133134 30.1041885,3.35104712 31.2648467,4.8934555 C32.4256545,6.4354899 33.6479806,7.93216156 34.9420344,9.36465969 C36.2339566,10.7989155 37.5891548,12.175991 39.0037397,13.4891922 C40.4177263,14.802543 41.8911743,16.0518699 43.4147345,17.2359013 C44.9382947,18.4201945 46.5119671,19.5391922 48.1241586,20.5984293 C49.736724,21.6578534 51.3874346,22.657629 53.0646971,23.6092371 C56.4192221,25.5144353 59.8807031,27.2199327 63.3620045,28.8729993 C66.8440539,30.5262902 70.3496634,32.1286088 73.8047868,33.8347046 C77.2591623,35.5399776 80.6623037,37.3569185 83.9263276,39.4049364 C85.5583396,40.4284966 87.1548242,41.5089005 88.7038145,42.6540015 C90.2531788,43.7987285 91.7546746,45.0081526 93.1989529,46.2830217 C94.6432311,47.5578908 96.0302917,48.8982049 97.3534031,50.2987285 C98.6768886,51.6988781 99.9367988,53.1592371 101.133134,54.6700823 C99.9409125,53.1558714 98.684742,51.6921466 97.3649963,50.2878833 C96.0452506,48.88362 94.6615557,47.5388182 93.2198953,46.2594615 C91.7786088,44.9801047 90.2789828,43.765819 88.7318624,42.6158564 C87.184742,41.4658938 85.5901272,40.3802543 83.959985,39.3518325 C80.6989529,37.2931189 77.2980553,35.4655198 73.8466717,33.7500374 C70.39454,32.0336574 66.8926702,30.4215034 63.4162304,28.7592371 C59.9405385,27.0972326 56.486537,25.3836948 53.1424832,23.4723261 C49.7980553,21.5643605 46.5632012,19.4586387 43.5310396,17.0867988 C42.0149589,15.9018699 40.5493642,14.652356 39.1432311,13.3393044 C37.7367988,12.0264398 36.3898654,10.6502618 35.1062079,9.21742708 C33.8204188,7.78631264 32.6063949,6.29139865 31.4537397,4.75149589 C30.3012341,3.21121915 29.2122289,1.62385939 28.1805535,0 L27.9676141,0.134854151 Z" id="Path"></path>
            <path d="M29.9649589,0.134854151 C30.9696709,1.70673149 32.0277861,3.24446522 33.1450262,4.73844428 L33.5669783,5.29648467 L33.7779357,5.57550486 C33.8476066,5.66903515 33.9221391,5.75875093 33.9940165,5.85056096 C34.2845924,6.21540763 34.5727375,6.58216156 34.8652954,6.94536275 L35.7610322,8.02023186 C35.8347046,8.11062079 35.9129768,8.19712042 35.9893418,8.28522812 L36.2195587,8.54857891 L36.6800673,9.07524308 C37.9200075,10.4690352 39.2191473,11.8101346 40.5744203,13.0919596 C41.9293194,14.3739342 43.3399402,15.5964847 44.7991773,16.7577786 C47.7172775,19.0822737 50.829469,21.154712 54.0504862,23.0300299 C57.2715034,24.9074794 60.5994764,26.592745 63.9581152,28.2031414 C67.3171279,29.8152206 70.7068063,31.3599476 74.0609574,32.9783096 C77.4147345,34.5958115 80.7352281,36.2894914 83.9409125,38.1850411 C87.1469708,40.0773373 90.2378459,42.1719521 93.1293942,44.5197457 C94.5751683,45.6925206 95.9715782,46.9270007 97.3111444,48.2205684 C98.6507105,49.5141361 99.9330591,50.8667913 101.15632,52.2714286 C99.9371728,50.8630516 98.65819,49.5070307 97.3219895,48.2093493 C95.9857891,46.9116679 94.592745,45.6727001 93.1492147,44.4950636 C90.262902,42.1382947 87.1757666,40.0335826 83.973074,38.1308153 C80.7703815,36.2249065 77.4525056,34.5207928 74.1020942,32.8932311 C70.7513089,31.2648467 67.3657442,29.7104338 64.013089,28.0896036 C60.6600598,26.4704562 57.3406881,24.7774495 54.1297681,22.8940165 C50.9195961,21.012715 47.8204936,18.9361631 44.9173523,16.6100598 C43.4652206,15.4479058 42.0620793,14.2250935 40.7150337,12.9433807 C39.367988,11.6618549 38.0769634,10.3215782 36.8451384,8.9289828 L36.3876963,8.40280479 L36.1589753,8.13971578 C36.0831339,8.05172027 36.0053852,7.96529544 35.932199,7.8750187 L35.042558,6.8012715 C34.7520194,6.43848168 34.4658564,6.07213912 34.1772999,5.70777861 C34.1059461,5.61608078 34.0318998,5.52643979 33.9627524,5.43305909 L33.7532909,5.15437547 L33.334368,4.59704562 C32.2251309,3.10501122 31.1749065,1.56948392 30.1779357,0 L29.9649589,0.134854151 Z" id="Path"></path>
            <path d="M31.9623037,0.134854151 C32.9336574,1.65445026 33.9546746,3.14229619 35.0307031,4.58967838 L35.4372102,5.1302169 C35.573074,5.31009723 35.7065819,5.49184742 35.8479806,5.66746447 L36.6860509,6.72924458 L37.547831,7.77183994 L37.6557966,7.90198205 L37.7664921,8.02980553 L37.9878833,8.28541511 L38.4308153,8.79667165 C40.8111444,11.5067689 43.4177263,14.0175393 46.2146597,16.2935303 C49.0104712,18.5722887 51.9925206,20.6150711 55.0852655,22.4646971 C58.1776365,24.3166417 61.3788332,25.9784592 64.6166791,27.5553852 C67.855273,29.1325729 71.131638,30.6280105 74.3844428,32.1713912 C77.6372476,33.7141361 80.868362,35.3065445 84.0104712,37.0646223 C87.1518325,38.8215408 90.2011967,40.7501122 93.0818998,42.910546 C95.9637248,45.067988 98.6727749,47.4584144 101.158564,50.0642483 C98.6802543,47.4513089 95.9779357,45.0522812 93.1009723,42.8851159 C90.2251309,40.7157068 87.1795064,38.7770381 84.0415108,37.0097233 C80.9027674,35.2413613 77.6742708,33.6386687 74.4252057,32.0860135 C71.1757666,30.5327973 67.9038893,29.0278983 64.6720269,27.4421466 C61.4405385,25.8566941 58.2479432,24.1873224 55.1664174,22.3296559 C52.0845176,20.474196 49.1155572,18.4275243 46.3343306,16.1471204 C43.551982,13.8694465 40.961107,11.3592745 38.5964847,8.65142109 L38.1566941,8.14061331 L37.936911,7.88519073 L37.8269634,7.75747943 L37.7197831,7.62748691 L36.8639117,6.58593867 L36.0317876,5.52531788 C35.8913613,5.34988781 35.7588631,5.168362 35.624009,4.98866866 L35.2204188,4.44880329 C34.1522438,3.00321616 33.1389678,1.51738968 32.1752431,0 L31.9623037,0.134854151 Z" id="Path"></path>
            <path d="M33.9596485,0.134854151 C34.8997382,1.60553478 35.8861257,3.04655946 36.923822,4.45007479 L37.316006,4.97415856 C37.447457,5.14824233 37.5753179,5.32513089 37.7116679,5.49554974 L38.5190726,6.52599102 L39.3489155,7.53836948 C39.4857891,7.70852655 39.6308901,7.87161556 39.7718773,8.03788332 L40.1982049,8.53459237 C42.4876589,11.1700075 44.9884069,13.6213164 47.671653,15.8530292 C50.3537771,18.0871728 53.2146597,20.1002992 56.1869858,21.9253179 C59.1589379,23.7524682 62.2400898,25.3938669 65.3638743,26.9409125 C68.4876589,28.4891174 71.6555722,29.9440912 74.8100224,31.4244203 C77.9644727,32.9045625 81.1077038,34.4115931 84.1802543,36.0551608 C85.7165295,36.8767016 87.2348542,37.7320494 88.7266268,38.6319372 C90.2183994,39.5317128 91.6824981,40.4771129 93.1118175,41.4733732 C95.9704562,43.4651458 98.683994,45.6678384 101.197083,48.0829469 C98.6914734,45.660359 95.9839192,43.4486911 93.1297681,41.4475692 C91.7030666,40.4464473 90.2408377,39.4961855 88.7509349,38.5915482 C87.2610322,37.6866492 85.7445774,36.8262154 84.210172,35.9996634 C81.1409873,34.3459611 78.0007479,32.8287584 74.8504114,31.3389304 C71.6997008,29.8488407 68.5370232,28.3845924 65.4199701,26.8280479 C62.302917,25.2727001 59.2307405,23.6239716 56.2696335,21.7912491 C53.3085266,19.9606208 50.460359,17.9436799 47.7928197,15.7079282 C45.1241586,13.4745325 42.6387435,11.0236724 40.3649963,8.39023934 L39.9416604,7.89390426 C39.8014211,7.72778609 39.657442,7.56484667 39.5216904,7.39483919 L38.697457,6.38339566 L37.8959237,5.3539641 C37.7605834,5.18380703 37.6336574,5.00710546 37.5031788,4.83317128 L37.1139117,4.30968586 C36.0839566,2.90781601 35.1051608,1.46862378 34.1725879,0 L33.9596485,0.134854151 Z" id="Path"></path>
            <path d="M35.9569933,0.134854151 C36.8653702,1.55590875 37.8168287,2.94943904 38.816006,4.30826477 L39.1937173,4.81559461 L39.3825729,5.06925954 L39.4771877,5.19592371 L39.5740464,5.32071803 L40.3511593,6.31896036 L41.1488407,7.30074794 C41.2804787,7.46551982 41.4184742,7.62490651 41.5545999,7.78571429 L41.9644727,8.26765146 C44.1623037,10.8264024 46.5572177,13.215632 49.1264024,15.400561 C51.6940912,17.5875093 54.4330591,19.5686238 57.2830965,21.367801 C60.1327599,23.1689604 63.091623,24.7900898 66.0979806,26.3092371 C72.1118175,29.3501122 78.31638,31.9866492 84.3070307,35.0651832 C87.3017951,36.6026552 90.2423336,38.2508601 93.0665669,40.0851907 C95.8904263,41.9176515 98.5946148,43.9389678 101.123411,46.1637248 C98.6017203,43.9311144 95.9031414,41.9008227 93.0837696,40.0586387 C90.2640239,38.2149589 87.3268512,36.5566193 84.3358265,35.0091249 C78.3522812,31.9106208 72.1544503,29.2540015 66.1551982,26.1968212 C63.1559461,24.6695587 60.2060583,23.0413239 57.3672401,21.2347794 C54.5284218,19.4301421 51.802543,17.4454001 49.2490651,15.2567689 C46.6944652,13.0701945 44.3145101,10.6812266 42.132012,8.12423336 L41.7251309,7.64267016 C41.5897532,7.48197457 41.4525056,7.32273747 41.3219895,7.15804039 L40.5302917,6.17711294 L39.7587883,5.17980553 L39.6626776,5.05512341 L39.5688108,4.92857143 L39.381077,4.67516829 L39.0063575,4.168362 C38.0148841,2.81099476 37.0709424,1.41922214 36.1699701,0 L35.9569933,0.134854151 Z" id="Path"></path>
            <path d="M37.9543381,0.134854151 C38.8335826,1.51020942 39.7528048,2.85979806 40.7165295,4.17718773 L41.0807779,4.66903515 L41.263276,4.91495886 L41.3541511,5.03792072 L41.447644,5.15905011 L42.1967091,6.12744951 C42.4510097,6.44652206 42.7086761,6.76293942 42.9648467,7.08081526 C43.0291698,7.15983545 43.091997,7.24038893 43.157816,7.31810022 L43.355273,7.55220643 L43.749439,8.02034405 C45.8638743,10.5075168 48.1630516,12.8380703 50.6275243,14.9780479 C53.0908751,17.1198205 55.7180254,19.0694839 58.4551234,20.8438669 C61.1922214,22.6200075 64.0377711,24.2223261 66.9349289,25.7175019 C72.7303665,28.7115183 78.7299925,31.2751309 84.565445,34.1775617 C87.4831713,35.6280105 90.3601346,37.1644727 93.1417352,38.8626776 C95.9233358,40.5590127 98.6077038,42.4198953 101.138369,44.4744951 C98.6140613,42.4116679 95.9353029,40.54181 93.15819,38.8357517 C90.381077,37.1280479 87.5074794,35.5815632 84.5934929,34.1211668 C78.7655198,31.1989155 72.7733732,28.6155572 66.9928945,25.6055722 C64.1032162,24.1024682 61.2670157,22.4932311 58.5411369,20.7118175 C55.8148841,18.932199 53.2011967,16.9789828 50.7516829,14.8355273 C48.3010471,12.6938669 46.0172027,10.363463 43.9177263,7.87778609 L43.526178,7.40994764 L43.3305909,7.17602842 C43.2647719,7.09835453 43.2026926,7.01783844 43.1387435,6.93885565 L42.3762154,5.98627524 L41.6327599,5.01873598 L41.540015,4.89771877 L41.4498878,4.77486911 L41.2688856,4.52913239 L40.907255,4.03777113 C39.9510097,2.72169035 39.039267,1.373635 38.1671653,0 L37.9543381,0.134854151 Z" id="Path"></path>
            <path d="M39.9517577,0.134854151 C41.6529544,2.79397906 43.500374,5.36327599 45.538893,7.77528048 C47.5718025,10.1909873 49.776739,12.4621915 52.1394914,14.5561331 C54.5011219,16.6515333 57.0183246,18.5682498 59.644353,20.3170531 C62.2703815,22.0673897 65.0037397,23.6508227 67.7920718,25.123635 C70.5807779,26.5973448 73.4244577,27.9621167 76.2789828,29.2994764 C79.1335079,30.6369484 82,31.9483919 84.8365744,33.3223635 C87.6731488,34.6957741 90.4805535,36.1326103 93.21092,37.7071055 C95.9416604,39.2804039 98.5942408,40.9931937 101.116305,42.8851159 C98.6005984,40.9845924 95.9528796,39.2628272 93.2270007,37.6798803 C90.5007479,36.0956993 87.6967091,34.6489529 84.8642483,33.2657068 C82.0314136,31.8818624 79.1686612,30.5606582 76.3189978,29.2139491 C73.4697083,27.8673523 70.632012,26.4937921 67.8511593,25.0123037 C65.0706806,23.5317502 62.3470456,21.9415482 59.7322364,20.1860883 C57.1170531,18.4321616 54.6129394,16.5119671 52.2651458,14.4148467 C49.9162304,12.3191847 47.7258788,10.048018 45.7079282,7.63358265 C43.683994,5.22288706 41.8515333,2.65602094 40.1645475,0 L39.9517577,0.134854151 Z" id="Path"></path>
            <path d="M41.9491399,0.134854151 C43.5953628,2.70848915 45.3780853,5.19786836 47.3399402,7.54158564 C49.2961855,9.88874346 51.4132386,12.1022812 53.6798803,14.1508975 C55.9465221,16.1997756 58.3608826,18.0827599 60.881077,19.8068063 C63.4012715,21.5327225 66.0280479,23.096896 68.7120419,24.5495138 C71.3967838,26.0028048 74.1387435,27.3450636 76.8971578,28.6483545 C79.6555722,29.951982 82.4315632,31.2172027 85.1869858,32.5255797 C87.9424084,33.8335453 90.6783844,35.1853029 93.3530292,36.6522812 C96.0272999,38.1184742 98.6398654,39.7011219 101.142857,41.4460733 C98.6462229,39.6925206 96.0381451,38.1005236 93.367988,36.6247195 C90.697831,35.1480553 87.9655946,33.7864248 85.2142857,32.4686986 C82.4626028,31.1505984 79.6907255,29.8757292 76.9375467,28.5629394 C74.184368,27.250561 71.4487659,25.8997008 68.7722513,24.4387809 C66.0961107,22.9786088 63.4790576,21.407816 60.9704562,19.676926 C58.461107,17.9478684 56.0598355,16.0614809 53.8070307,14.0108452 C51.5538519,11.9604712 49.4510097,9.74678384 47.5093493,7.40067315 C45.5624533,5.05804039 43.7939417,2.57083022 42.1619297,0 L41.9491399,0.134854151 Z" id="Path"></path>
            <path d="M43.9465221,0.134854151 C45.5370232,2.62187734 47.2550486,5.0302169 49.1394914,7.30407629 C51.0190726,9.58092745 53.0478684,11.7353029 55.2195213,13.7357517 C57.3908003,15.7360883 59.7008227,17.583994 62.1151832,19.2804787 C64.5295438,20.9782349 67.0467464,22.5252805 69.6249065,23.9570307 C72.2034405,25.3902019 74.8414361,26.7115931 77.5007479,27.9840688 C80.1604338,29.2569933 82.842184,30.4816006 85.5119671,31.7308153 C88.1817502,32.9800299 90.8399402,34.2549364 93.4506358,35.6231488 C96.0613313,36.9906881 98.6245325,38.4528048 101.097607,40.0578908 C98.6305161,38.4438295 96.0718025,36.9724383 93.4655946,35.5952506 C90.8590127,34.2174645 88.2041885,32.9326477 85.5385191,31.673822 C82.8728497,30.4148841 80.1959611,29.1807779 77.5418848,27.8988781 C74.8878085,26.6173897 72.2565445,25.2875841 69.6866118,23.8470082 C67.1163052,22.407816 64.6088257,20.8544129 62.2060583,19.1517577 C59.802917,17.450374 57.5056096,15.5991025 55.3477936,13.5969708 C53.1899776,11.5946896 51.1750187,9.44005236 49.3096485,7.16398654 C47.4397906,4.89098728 45.7359761,2.48451758 44.1593119,0 L43.9465221,0.134854151 Z" id="Path"></path>
            <path d="M45.9439043,0.134854151 C47.4824233,2.54106208 49.1402393,4.873635 50.9532536,7.081638 C52.762528,9.29222139 54.7097981,11.3905385 56.7935677,13.344166 C58.8765894,15.2985415 61.0905011,17.1114809 63.4065071,18.7809274 C65.7221391,20.4514211 68.1379955,21.9793194 70.6166791,23.3933807 C73.0957367,24.8078534 75.6353777,26.1109948 78.2011967,27.3576664 C80.7666417,28.604712 83.3582648,29.7961107 85.9454001,30.9965595 C88.5317876,32.1971204 91.1140613,33.4084144 93.6596859,34.6934929 C96.2053104,35.9781227 98.7150337,37.3375093 101.150711,38.8215408 C98.7202693,37.3285714 96.2154076,35.9596485 93.6742708,34.6653702 C91.1323859,33.3706432 88.5542259,32.1495886 85.9719521,30.939454 C83.3893044,29.7293942 80.802543,28.5286088 78.2427076,27.2727375 C75.6828721,26.0172401 73.1499626,24.7057966 70.6795064,23.2840314 C68.2094241,21.862715 65.8032909,20.3285714 63.4988781,18.6533283 C61.1940912,16.9790576 58.9928945,15.1627898 56.9229619,13.2065819 C54.8526552,11.2510471 52.9192221,9.15228123 51.1245325,6.94233358 C49.3253553,4.73496634 47.6817502,2.4040015 46.1566941,0 L45.9439043,0.134854151 Z" id="Path"></path>
            <path d="M47.9409125,0.134854151 C49.4267016,2.4579282 51.0228123,4.71245325 52.763276,6.85209424 C54.500374,8.99386687 56.3649963,11.0332461 58.3593867,12.9375093 C60.3526552,14.8430815 62.4693343,16.618175 64.684368,18.2583022 C66.8994016,19.8994764 69.2120419,21.4057218 71.5871354,22.8012341 C73.9629768,24.1973074 76.4016455,25.4820494 78.8691099,26.704899 C81.3369484,27.9279357 83.8343306,29.0890426 86.3328347,30.2456619 C88.8313388,31.402169 91.3313388,32.5557218 93.8051608,33.7643979 C96.2786088,34.9728123 98.7258788,36.237098 101.114809,37.6066567 C98.7311144,36.2280105 96.2883321,34.9541511 93.8189978,33.7361257 C91.3496634,32.517801 88.8534031,31.3545625 86.3593867,30.1885191 C83.8653702,29.0224383 81.3728497,27.8520194 78.9113687,26.6202693 C76.4498878,25.3887061 74.0183246,24.0958489 71.6514585,22.6926702 C69.2845924,21.2900524 66.9820494,19.7777487 64.7786088,18.1318998 C62.5744203,16.4870606 60.4704562,14.7086761 58.4902767,12.8011219 C56.5089753,10.894914 54.65819,8.85493642 52.9349289,6.71353777 C51.2083022,4.57430815 49.6260284,2.32116679 48.1540763,2.12578231e-15 L47.9409125,0.134854151 Z" id="Path"></path>
            <path d="M49.9382947,0.134854151 C51.3739716,2.38006731 52.9128646,4.56129394 54.5860135,6.63635004 C56.2561705,8.7131638 58.0445026,10.6961855 59.9562453,12.5530292 C61.8661182,14.4116305 63.8926702,16.1495886 66.0142109,17.7606956 C68.1353777,19.3727001 70.3507853,20.8577786 72.6301421,22.2348542 C74.9087509,23.6131264 77.2516829,24.8816754 79.6264024,26.0838818 C82.0011219,27.2863126 84.408377,28.4223261 86.8219895,29.5428197 C89.2359761,30.663276 91.6563201,31.7690726 94.0579656,32.9142483 C96.4596111,34.0591249 98.8433059,35.2437173 101.181002,36.5155572 C98.8485415,35.2345176 96.4693343,34.0403141 94.0718025,32.8858265 C91.6738968,31.7310396 89.2580404,30.6155572 86.8489155,29.4857143 C84.4397906,28.3557966 82.0377711,27.2106582 79.6694091,25.999626 C77.3006731,24.7888556 74.9652206,23.5123411 72.6952132,22.1270755 C70.4252057,20.7430815 68.2195213,19.2520942 66.1095737,17.6354525 C63.9992521,16.0197083 61.9854151,14.2784592 60.0886313,12.4178384 C58.1896036,10.5589753 56.4147345,8.57520568 54.7584144,6.49854151 C53.0987285,4.4237098 51.5736724,2.24356769 50.1514585,2.12578231e-15 L49.9382947,0.134854151 Z" id="Path"></path>
            <path d="M51.9356769,0.134854151 C53.3197457,2.29936425 54.7991773,4.40445026 56.4035153,6.4118549 C58.0048616,8.42086761 59.7154076,10.3440165 61.5422588,12.1506358 C63.3672401,13.9591249 65.3006731,15.6567689 67.3261032,17.2360883 C69.3507853,18.8161556 71.4663426,20.2777487 73.6454749,21.6348915 C75.8242334,22.9930815 78.0665669,24.2463725 80.3440539,25.4282723 C82.6215408,26.61092 84.934181,27.723822 87.2576664,28.8114435 C91.9042633,30.9858265 96.5972326,33.0655198 101.152954,35.4278235 C96.6069559,33.046896 91.921466,30.947457 87.2842184,28.7544129 C84.9659686,27.6574794 82.6589379,26.5355647 80.3878085,25.3444652 C78.1166791,24.1541511 75.882199,22.8930441 73.7124159,21.5280479 C71.5422588,20.1640987 69.4367988,18.6967091 67.4233358,17.1120793 C65.4091249,15.5281975 63.4876589,13.8272251 61.6757666,12.0166791 C59.8616305,10.2079282 58.1645475,8.28388182 56.5762902,6.27483171 C54.9854151,4.26738968 53.5194465,2.16308901 52.1488407,2.12578231e-15 L51.9356769,0.134854151 Z" id="Path"></path>
            <path d="M53.9330591,0.134854151 C55.2696335,2.21780105 56.697083,4.24255797 58.2284966,6.18646223 L58.8077786,6.91159312 L59.0972326,7.27412117 C59.1944652,7.39454001 59.2969334,7.51043381 59.3964099,7.62879581 L59.9981301,8.33545251 L60.2988033,8.68874346 C60.3990277,8.80639491 60.4981301,8.92539267 60.6035901,9.03859387 L61.8500374,10.4135004 L63.1387435,11.7492521 C64.881451,13.5059835 66.7251309,15.1616679 68.6559461,16.7078908 C70.5863874,18.254712 72.6035901,19.6918474 74.6832461,21.0288706 C76.763276,22.3663052 78.9053852,23.6054226 81.0863874,24.767801 C83.2673897,25.9316006 85.4850411,27.0238594 87.7176515,28.0832087 C92.1824981,30.2020568 96.7071803,32.1913987 101.132386,34.3921092 C96.7165295,32.1726253 92.1993269,30.1636126 87.7445774,28.0263276 C85.5172027,26.9577786 83.3051608,25.8565819 81.131264,24.6845176 C78.9566193,23.5138743 76.8227375,22.2670905 74.7516829,20.9229993 C72.6806283,19.579282 70.6738968,18.1364996 68.7546746,16.5851159 C66.8350785,15.0344054 65.0033657,13.3754301 63.2733732,11.6164921 L61.9943904,10.2793194 L60.7572924,8.90336574 C60.6525804,8.79005236 60.5545999,8.6710172 60.4551234,8.55329095 L60.1566941,8.19981301 L59.5602094,7.49285714 C59.4614809,7.37442034 59.3593867,7.25852655 59.263276,7.13807031 L58.9760658,6.77543007 L58.4020194,6.05014959 C56.8836948,4.10598355 55.4693343,2.08178758 54.1462229,2.12578231e-15 L53.9330591,0.134854151 Z" id="Path"></path>
            <path d="M55.9304413,0.134854151 C57.2169035,2.13997756 58.5871354,4.09117427 60.0538519,5.96832461 C61.5205684,7.84465221 63.0804039,9.65029918 64.7456993,11.3533283 C66.408377,13.0589753 68.1649215,14.6722139 70.0044877,16.1841062 C71.8436799,17.6965595 73.7651458,19.1074046 75.7486911,20.4229619 C77.7326103,21.7386313 79.776739,22.9612939 81.8620045,24.1070681 C83.94727,25.2533283 86.0710546,26.3273373 88.2127898,27.3620419 C92.4966343,29.4319746 96.8526552,31.3453254 101.139117,33.4077412 C96.8616305,31.3264024 92.513463,29.3935303 88.2404637,27.3053478 C86.1039641,26.2615183 83.9861631,25.1787584 81.907629,24.0243455 C79.829469,22.8704562 77.7931937,21.6403141 75.8186238,20.3181002 C73.8444278,18.9959611 71.9330591,17.5795438 70.104712,16.0626402 C68.276365,14.5462603 66.5317876,12.9296933 64.881451,11.2217651 C63.2284966,9.51645475 61.6817502,7.70953628 60.2277487,5.83275991 C58.7741212,3.95516081 57.4166043,2.00422588 56.1436051,2.12578231e-15 L55.9304413,0.134854151 Z" id="Path"></path>
            <path d="M57.9278235,0.134854151 C59.1637996,2.06211668 60.4775617,3.93964099 61.8799551,5.74943904 C63.2827225,7.55852655 64.7703815,9.30310396 66.3563949,10.9539267 C67.9401645,12.6071803 69.6110696,14.1762528 71.3601346,15.6520194 C73.1088257,17.1282349 74.9356769,18.5108452 76.8234854,19.8035527 C78.71092,21.0966343 80.65819,22.3003366 82.6462229,23.4305161 C84.6353777,24.5595363 86.6641735,25.6165295 88.7135378,26.6293568 C92.8133882,28.655834 96.9955123,30.5048242 101.134256,32.446896 C97.0044877,30.4858639 92.8302169,28.6174271 88.7415856,26.5729619 C86.697457,25.5510845 84.6750187,24.4854525 82.6933433,23.3484293 C80.7124159,22.2102842 78.7729993,20.9992147 76.894914,19.6997382 C75.0164547,18.4006358 73.1997008,17.0124907 71.4618549,15.531825 C69.723635,14.0516455 68.0646971,12.4792072 66.4936425,10.8235602 C64.9195961,9.17034405 63.4442782,7.42434555 62.0545999,5.61462229 C60.6649215,3.80415108 59.3642483,1.92666417 58.1406133,2.12578231e-15 L57.9278235,0.134854151 Z" id="Path"></path>
            <path d="M59.9252057,0.134854151 C61.1125654,1.98668661 62.3717277,3.79255797 63.7124159,5.53661182 C65.053104,7.27995512 66.4723261,8.96458489 67.9827973,10.56365 C69.4906507,12.1648841 71.079282,13.6894914 72.7419596,15.1284592 C74.4046372,16.5677636 76.1406133,17.9211668 77.9353029,19.1901272 C79.7299925,20.4594615 81.5833957,21.6444278 83.4775617,22.7581526 C85.3724757,23.871092 87.3085266,24.9117427 89.2673897,25.9056844 C93.1862378,27.8940912 97.1963351,29.6904263 101.18362,31.5317502 C97.2049364,29.6713912 93.2034405,27.8557592 89.2961855,25.8495512 C87.3429319,24.8467464 85.4132386,23.7976066 83.525804,22.676739 C81.6387435,21.5551608 79.7939417,20.3630142 78.0082274,19.0873598 C76.2228871,17.8121167 74.4970082,16.4532909 72.8455497,15.0095737 C71.1937173,13.5662304 69.6166791,12.0382199 68.1207928,10.4344802 C66.6222887,8.8329469 65.2157816,7.14670905 63.8874346,5.40246821 C62.5594615,3.65755423 61.3130142,1.85149589 60.1379955,2.12578231e-15 L59.9252057,0.134854151 Z" id="Path"></path>
            <path d="M61.9225879,0.134854151 C63.0602094,1.90946148 64.26365,3.64188482 65.5418848,5.31813762 C66.8201197,6.99367988 68.1697831,8.61619297 69.6039641,10.1609948 C71.0355273,11.7077412 72.5418848,13.1851907 74.1170531,14.5845924 C75.6922214,15.9842558 77.3362004,17.305647 79.0366492,18.5484667 C80.737472,19.791623 82.4943904,20.9562827 84.2924458,22.0520194 C86.0905011,23.1482797 87.9315632,24.1722513 89.7965595,25.1484667 C93.5272999,27.1010097 97.3575168,28.8519447 101.18362,30.6053478 C97.3661182,28.8329095 93.5448766,27.0627898 89.8257292,25.0927076 C87.9667165,24.1077038 86.1323859,23.0753927 84.34181,21.9714286 C82.5512341,20.8679506 80.802543,19.6962603 79.1114435,18.446896 C77.4199701,17.1979058 75.7860883,15.8711668 74.2217651,14.4670905 C72.657442,13.063276 71.1626776,11.5823859 69.7430815,10.0330217 C68.3208676,8.48563949 66.9835453,6.86133134 65.7172775,5.18474196 C64.4517577,3.50740464 63.2606582,1.77453254 62.1353777,2.12578231e-15 L61.9225879,0.134854151 Z" id="Path"></path>
            <path d="M63.9199701,0.134854151 C65.0056096,1.82883321 66.1514585,3.48429319 67.3649963,5.08919222 L67.8227375,5.68885565 L68.0516081,5.98866866 L68.2875841,6.28317128 L68.7599102,6.87127898 L68.9962603,7.16529544 C69.0747943,7.26350037 69.1533283,7.36170531 69.2356021,7.45691847 L70.2097981,8.6091623 L71.2120419,9.7368736 C72.565445,11.2253927 73.986911,12.6517951 75.4723261,14.0077786 C76.9573672,15.3639865 78.5063575,16.649626 80.1095737,17.8630142 C81.7127898,19.0767016 83.3698579,20.218175 85.0676889,21.2940539 C86.7647719,22.371092 88.5052356,23.3781975 90.2711294,24.3366492 C93.8044129,26.2537771 97.4424084,27.9648841 101.093119,29.6410621 C97.4513837,27.9458115 93.8223635,26.2157816 90.3014211,24.2813762 C88.5415108,23.3142483 86.8077786,22.2989155 85.118175,21.2142857 C83.4281975,20.1308527 81.7797307,18.9824981 80.1858639,17.762715 C78.591997,16.5432311 77.053104,15.252356 75.578908,13.8917352 C74.1039641,12.5313388 72.6940912,11.1014211 71.3522812,9.61017203 L70.3590127,8.48055348 L69.3937921,7.32670157 C69.3122663,7.23133882 69.2344802,7.13302169 69.1566941,7.03470456 L68.9225879,6.74031414 L68.4543755,6.15157068 L68.2210172,5.85680628 L67.9943904,5.55669409 L67.5411369,4.9565445 C66.3399402,3.35033657 65.2064323,1.69416604 64.1327599,2.12578231e-15 L63.9199701,0.134854151 Z" id="Path"></path>
            <path d="M65.9173523,0.134854151 C67.9936425,3.3736724 70.2902019,6.47602842 72.855647,9.34450262 C74.1379955,10.7783844 75.4827973,12.1563575 76.8870606,13.4706806 C78.2909499,14.7851533 79.7543007,16.0357891 81.2688856,17.2201197 C84.2976814,19.5905759 87.5314136,21.6898654 90.882199,23.570531 C94.2322364,25.4557592 97.6914734,27.1352655 101.175767,28.751982 C97.7000748,27.1162678 94.250561,25.417988 90.9132386,23.5157068 C87.5751683,21.617988 84.3567689,19.5034779 81.3466717,17.1210546 C79.8414361,15.9307031 78.3881825,14.6748317 76.9951384,13.3559461 C75.6013463,12.0372476 74.2681376,10.6557218 72.9970082,9.21899776 C70.4543755,6.34483919 68.1821242,3.23967838 66.1301421,2.12578231e-15 L65.9173523,0.134854151 Z" id="Path"></path>
            <path d="M67.9147345,0.134854151 C69.8833209,3.20624533 72.0501122,6.15426328 74.4569933,8.89685864 C76.8631264,11.6391548 79.4981301,14.1794316 82.3305909,16.4761032 C85.1619297,18.7748691 88.183994,20.8317502 91.3264772,22.6761406 C94.4678384,24.5247195 97.7213912,26.1726253 101.012341,27.7334331 C97.7303665,26.1536649 94.486911,24.4872476 91.3586387,22.6219147 C88.2292446,20.7608078 85.2228871,18.6890426 82.4102468,16.3784592 C79.5968586,14.0699327 76.9827973,11.5208676 74.5994764,8.77262528 C72.2150337,6.02412117 70.0721765,3.07281227 68.1275243,2.12578231e-15 L67.9147345,0.134854151 Z" id="Path"></path>
            <path d="M69.9117427,0.134854151 C71.789454,3.0645101 73.8474196,5.88133882 76.1222887,8.51518325 C78.3967838,11.1481675 80.8799551,13.6008227 83.5467464,15.8333209 C86.2127898,18.0672027 89.0575916,20.0832087 92.0231862,21.8953254 C94.9880329,23.7112939 98.065445,25.3340688 101.188856,26.8548616 C98.0744203,25.3152206 95.0074794,23.6741586 92.0564697,21.8416978 C89.1039641,20.013089 86.2752431,17.9824981 83.6278983,15.7369484 C80.9798055,13.4927076 78.5179506,11.0312266 76.2655198,8.3921092 C74.013089,5.75205684 71.9786836,2.9315632 70.1249065,2.12578231e-15 L69.9117427,0.134854151 Z" id="Path"></path>
            <path d="M71.9091249,0.134854151 C73.6832461,2.90336574 75.618923,5.57026926 77.7456993,8.07801047 C79.8739716,10.5842184 82.1869858,12.9329469 84.6690352,15.087285 C87.1503366,17.2424084 89.7958115,19.2054974 92.5605834,20.9782349 C95.3238594,22.7541885 98.1997008,24.3486911 101.12902,25.8303291 C98.2090501,24.3299551 95.3444278,22.7174645 92.5946148,20.9253553 C89.8436799,19.1363874 87.2146597,17.1590875 84.7520568,14.992371 C82.2887061,12.8264398 79.9962603,10.4688108 77.8904263,7.95617053 C75.7853403,5.44195961 73.8728497,2.77094241 72.1222887,2.12578231e-15 L71.9091249,0.134854151 Z" id="Path"></path>
            <path d="M73.9065071,0.134854151 C75.5747943,2.73881825 77.3870606,5.25205684 79.3661182,7.62845924 C81.3470456,10.0027674 83.4910247,12.2408377 85.7875841,14.3095737 C88.0837696,16.3787584 90.5287958,18.2805909 93.0893792,20.0087135 C95.6488407,21.7393792 98.3171279,23.3032909 101.044877,24.7493269 C98.3268512,23.284742 95.6701571,21.7031788 93.1249065,19.9566567 C90.578534,18.2126402 88.1499626,16.2968586 85.8724757,14.2162304 C83.5942408,12.1360135 81.4708302,9.88896784 79.5115931,7.5079282 C77.5542259,5.12475692 75.7647719,2.60695587 74.1196709,2.12578231e-15 L73.9065071,0.134854151 Z" id="Path"></path>
            <path d="M75.9038893,0.134854151 C77.4663426,2.57359761 79.1551982,4.93197457 80.9887809,7.1737098 C82.8246073,9.41327599 84.8032909,11.5356769 86.9181002,13.512528 C89.0321616,15.4894914 91.2801047,17.3225879 93.6372476,19 C95.9932685,20.6795438 98.4532536,22.2089379 100.97644,23.620905 C98.4633508,22.1906133 96.0157068,20.6439043 93.6738968,18.9488407 C91.3309648,17.2558714 89.1002244,15.4091249 87.0044877,13.4207928 C84.908377,11.4325729 82.9498878,9.30108452 81.1357517,7.05448766 C79.3234854,4.80568437 77.6566941,2.44225879 76.1170531,2.12578231e-15 L75.9038893,0.134854151 Z" id="Path"></path>
            <path d="M77.9012715,0.134854151 C79.3672401,2.42273747 80.9446522,4.63971578 82.6488407,6.75594615 C84.3537771,8.87097981 86.1854899,10.8838444 88.1376215,12.7717651 C90.0901272,14.6594989 92.1611818,16.4232236 94.3354525,18.0484667 C96.5082274,19.6755049 98.7786088,21.1686612 101.114435,22.5488033 C98.789454,21.1505984 96.5314136,19.6404637 94.3732236,17.9981675 C92.2139117,16.3576664 90.1593119,14.5805161 88.2255049,12.6814884 C86.2920718,10.7822737 84.4801795,8.76020942 82.7961855,6.63788332 C81.1133134,4.51432311 79.5579656,2.29192221 78.1144353,2.12578231e-15 L77.9012715,0.134854151 Z" id="Path"></path>
            <path d="M79.8986537,0.134854151 C81.2617801,2.25564697 82.7198953,4.31537023 84.2853403,6.29065071 C85.8504114,8.26604338 87.5228123,10.1562827 89.3017951,11.9404637 C91.0800299,13.7250561 92.9644727,15.402917 94.9390426,16.9655946 C96.9132386,18.5289454 98.9768138,19.9769634 101.10546,21.3202693 C98.9880329,19.9592371 96.9375467,18.4946148 94.9783096,16.9163426 C93.0186986,15.3387435 91.1510845,13.6477188 89.3911743,11.8518325 C87.6308901,10.0563949 85.9783096,8.15684368 84.434181,6.17385939 C82.8893044,4.19094989 81.4525056,2.12531788 80.1114435,2.12578231e-15 L79.8986537,0.134854151 Z" id="Path"></path>
            <path d="M81.8960359,0.134854151 C83.1477188,2.08242334 84.4798055,3.97823485 85.9016455,5.80441286 C87.3234854,7.63059088 88.8350785,9.38668661 90.4371728,11.0559461 C92.038893,12.7254675 93.7307405,14.3076664 95.5026178,15.7934929 C97.2741212,17.2798055 99.1252805,18.6695587 101.038519,19.9664921 C99.1372476,18.6522064 97.2995512,17.2462603 95.5433807,15.7454001 C93.7864622,14.2449888 92.1118175,12.649813 90.5284218,10.9690726 C88.9446522,9.28863126 87.4525056,7.52307405 86.0516081,5.68893044 C84.6499626,3.85486163 83.3388182,1.9526552 82.1088257,2.12578231e-15 L81.8960359,0.134854151 Z" id="Path"></path>
            <path d="M83.8934181,0.134854151 C85.0336574,1.90867614 86.2408377,3.6394166 87.5220643,5.31353777 C88.802917,6.98773373 90.157816,8.60512341 91.5882573,10.15273 C93.0183246,11.7005236 94.5235602,13.1782723 96.0979806,14.5774869 C97.6720269,15.9770007 99.315258,17.2977936 101.015333,18.5394166 C99.3275991,17.2808527 97.6985789,15.944353 96.1398654,14.5305909 C94.5811518,13.1170905 93.0931189,11.6266268 91.6810022,10.0676515 C90.2692595,8.50886313 88.9334331,6.88182498 87.6724009,5.19943904 C86.4117427,3.5170531 85.2251309,1.77946896 84.1062079,1.06289115e-15 L83.8934181,0.134854151 Z" id="Path"></path>
            <path d="M85.8908003,0.134854151 C87.9420344,3.32576664 90.2146597,6.37662678 92.7356021,9.2091997 C93.9955123,10.6256171 95.31638,11.9873972 96.6948392,13.2874346 C98.0732984,14.5875841 99.5093493,15.825804 100.995886,16.9995138 C99.5224383,15.8093867 98.1009723,14.5559088 96.7382199,13.24181 C95.3758414,11.9278983 94.0721765,10.5535527 92.8302169,9.12595363 C90.3455497,6.27097981 88.1129394,3.20340314 86.1035901,1.06289115e-15 L85.8908003,0.134854151 Z" id="Path"></path>
            <path d="M87.8881825,0.134854151 C89.7116679,2.96903515 91.7097981,5.69222139 93.9023934,8.24981301 C96.0934929,10.8080778 98.4798055,13.197831 101.038893,15.3831339 C98.5071055,13.166006 96.1537023,10.7489903 93.9985041,8.1683994 C91.842184,5.58844428 89.8836948,2.84779357 88.1009723,1.06289115e-15 L87.8881825,0.134854151 Z" id="Path"></path>
            <path d="M89.8855647,0.134854151 C91.4700823,2.59353029 93.1854899,4.96810022 95.0459985,7.22326103 C96.9057592,9.47868362 98.9106208,11.6133134 101.052356,13.5995138 C98.9394166,11.5827225 96.9674645,9.42154076 95.1439791,7.14375467 C93.3193717,4.86623037 91.6424832,2.47348542 90.0983545,1.06289115e-15 L89.8855647,0.134854151 Z" id="Path"></path>
            <path d="M91.8825729,0.134854151 C93.2225131,2.20830217 94.6548242,4.22142857 96.1892296,6.15329095 C97.723261,8.08526552 99.3593867,9.93541511 101.095363,11.6852655 C99.3893044,9.90605834 97.7868362,8.03010471 96.2887061,6.07576664 C94.7902019,4.12154076 93.3956619,2.089454 92.0957367,1.06289115e-15 L91.8825729,0.134854151 Z" id="Path"></path>
            <path d="M93.8799551,0.134854151 C94.9749439,1.82322364 96.131638,3.47116679 97.354899,5.06750187 C98.5777861,6.66387435 99.8672401,8.20845176 101.224009,9.69061331 C99.8986537,8.18040389 98.6428571,6.61065819 97.4554974,4.99192221 C96.2681376,3.37318624 95.1492147,1.70557218 94.0931189,1.06289115e-15 L93.8799551,0.134854151 Z" id="Path"></path>
            <path d="M95.8773373,0.134854151 C97.4439043,2.52909499 99.1353777,4.84046372 100.962229,7.03702319 C99.2008227,4.78762154 97.5811518,2.43175019 96.0905011,1.06289115e-15 L95.8773373,0.134854151 Z" id="Path"></path>
            <path d="M97.8747195,0.134854151 C98.8855647,1.65216904 99.9461481,3.13496634 101.059835,4.5749813 C100.013837,3.08511593 99.0246821,1.55755423 98.0878833,1.32861394e-15 L97.8747195,0.134854151 Z" id="Path"></path>
            <polygon id="Path" points="99.8721017 0.134854151 101.194091 1.92924458 100.085266 1.19575255e-15"></polygon>
        </g>
    </g>
</svg>